<?xml version="1.0" encoding="utf-8"?>
<!-- Generator: Adobe Illustrator 22.1.0, SVG Export Plug-In . SVG Version: 6.00 Build 0)  -->
<svg version="1.1" baseProfile="tiny" id="Layer_1" xmlns="http://www.w3.org/2000/svg" xmlns:xlink="http://www.w3.org/1999/xlink"
	 x="0px" y="0px" viewBox="0 0 124.5 39" xml:space="preserve">
<g>
	<g>
		<path fill="#666666" d="M117.2,38.5H7.3c-3.2,0-5.8-2.6-5.8-5.8V6.2c0-3.2,2.6-5.8,5.8-5.8h110c3.2,0,5.8,2.6,5.8,5.8v26.5
			C123,35.9,120.4,38.5,117.2,38.5z M7.3,1.4c-2.7,0-4.8,2.1-4.8,4.8v26.5c0,2.7,2.1,4.8,4.8,4.8h110c2.7,0,4.8-2.1,4.8-4.8V6.2
			c0-2.7-2.1-4.8-4.8-4.8H7.3z"/>
	</g>
	<g>
		<g>
			<path fill="#666666" d="M43.5,15.7c-1.6,0-2.8-1.2-2.8-2.7c0-1.5,1.2-2.6,2.7-2.6c1.1,0,2.2,0.7,2.5,1.6h-1.1
				c-0.3-0.4-0.8-0.7-1.4-0.7c-1,0-1.7,0.8-1.7,1.8s0.8,1.8,1.8,1.8c0.7,0,1.2-0.3,1.5-0.9h-2.1v-0.9h3.4v0.1
				C46.1,14.6,45,15.7,43.5,15.7z"/>
			<path fill="#666666" d="M46.8,15.6v-5.1h2.8v0.9h-1.8v1.2h1.7v0.9h-1.7v1.2h1.8v0.9L46.8,15.6L46.8,15.6z"/>
			<path fill="#666666" d="M51.9,11.4v4.2h-1v-4.2h-1v-0.9h2.9v0.9H51.9z"/>
			<path fill="#666666" d="M55.3,15.6v-5.1h1v5.1H55.3z"/>
			<path fill="#666666" d="M58.7,11.4v4.2h-1v-4.2h-1v-0.9h2.9v0.9H58.7z"/>
			<path fill="#666666" d="M64.5,15.7c-1.5,0-2.7-1.2-2.7-2.6c0-1.5,1.2-2.7,2.7-2.7c1.5,0,2.6,1.2,2.6,2.6
				C67.2,14.6,66.1,15.7,64.5,15.7z M64.5,11.4c-1,0-1.8,0.7-1.8,1.8c0,1,0.8,1.8,1.8,1.8c1,0,1.7-0.7,1.7-1.7
				C66.3,12.1,65.5,11.4,64.5,11.4z"/>
			<path fill="#666666" d="M71,15.6l-2.1-3.8v3.8h-1v-5.1H69l2.1,3.8v-3.8h1v5.1H71z"/>
			<path fill="#666666" d="M45.6,28.5c-2.7,0-4.7-2-4.7-4.5c0-2.5,2-4.5,4.6-4.5c1.9,0,3.7,1.1,4.2,2.7h-1.9
				c-0.5-0.7-1.4-1.2-2.4-1.2c-1.7,0-2.9,1.3-2.9,2.9c0,1.7,1.3,2.9,3,2.9c1.1,0,2.1-0.6,2.5-1.5h-3.6v-1.5H50V24
				C50.1,26.5,48.1,28.5,45.6,28.5z"/>
			<path fill="#666666" d="M54.1,28.5c-1.9,0-3.5-1.5-3.5-3.4c0-1.9,1.6-3.4,3.5-3.4c2,0,3.5,1.5,3.5,3.5
				C57.6,27,56.1,28.5,54.1,28.5z M54.1,23.1c-1,0-1.9,0.9-1.9,2c0,1.1,0.8,2,1.9,2c1,0,1.9-0.9,1.9-2C56.1,24,55.2,23.1,54.1,23.1z
				"/>
			<path fill="#666666" d="M61.7,28.5c-1.9,0-3.5-1.5-3.5-3.4c0-1.9,1.6-3.4,3.5-3.4c2,0,3.5,1.5,3.5,3.5
				C65.1,27,63.6,28.5,61.7,28.5z M61.7,23.1c-1,0-1.9,0.9-1.9,2c0,1.1,0.8,2,1.9,2c1,0,1.9-0.9,1.9-2C63.6,24,62.7,23.1,61.7,23.1z
				"/>
			<path fill="#666666" d="M69.2,31c-1.6,0-2.8-0.8-3.4-2h1.8c0.4,0.5,0.9,0.7,1.6,0.7c1.2,0,1.8-0.7,1.8-2.1c-0.6,0.7-1.2,1-2.1,1
				c-1.9,0-3.2-1.5-3.2-3.5c0-2,1.4-3.4,3.2-3.4c0.9,0,1.7,0.3,2.1,1v-0.8h1.5v5.3C72.6,29.9,71.2,31,69.2,31z M69.1,23.1
				c-1.1,0-1.8,0.8-1.8,2c0,1.2,0.7,2,1.9,2c1.1,0,1.9-0.8,1.9-2C71,23.9,70.3,23.1,69.1,23.1z"/>
			<path fill="#666666" d="M74,28.4v-8.7h1.6v8.7H74z"/>
			<path fill="#666666" d="M83.2,25.8h-5c0.2,0.8,0.9,1.3,1.8,1.3c0.6,0,1-0.2,1.4-0.6h1.7c-0.4,1.3-1.8,2.1-3.1,2.1
				c-2,0-3.5-1.5-3.5-3.4c0-1.9,1.5-3.4,3.4-3.4c2,0,3.4,1.5,3.4,3.5C83.3,25.5,83.3,25.6,83.2,25.8z M80,23.1
				c-0.9,0-1.6,0.4-1.8,1.3h3.6C81.6,23.6,80.9,23.1,80,23.1z"/>
			<path fill="#666666" d="M92.2,24.7c-0.5,0.3-1,0.4-2.3,0.4h-0.5v3.3h-1.6v-8.7h2.1c1.2,0,1.7,0.1,2.2,0.4
				c0.7,0.4,1.2,1.3,1.2,2.3C93.3,23.4,92.9,24.2,92.2,24.7z M89.9,21.2h-0.5v2.3h0.5c1.5,0,1.9-0.4,1.9-1.1
				C91.7,21.5,91.1,21.2,89.9,21.2z"/>
			<path fill="#666666" d="M94.2,28.4v-8.7h1.6v8.7H94.2z"/>
			<path fill="#666666" d="M102.2,28.4v-0.8c-0.6,0.7-1.3,1-2.1,1c-1.9,0-3.3-1.4-3.3-3.4c0-2,1.4-3.4,3.3-3.4c0.9,0,1.6,0.3,2.1,1
				v-0.9h1.4v6.5H102.2z M100.2,23.1c-1.1,0-1.9,0.8-1.9,2c0,1.1,0.8,1.9,2,1.9s1.9-0.8,1.9-2C102.1,24,101.3,23.1,100.2,23.1z"/>
			<path fill="#666666" d="M107,30.5h-1.7l1.2-2.8l-2.4-5.9h1.8l1.5,4.2l1.6-4.2h1.8L107,30.5z"/>
		</g>
		<g>
			<path fill="#666666" d="M27.1,18.6l-9.3-9.4L29.7,16L27.1,18.6L27.1,18.6z M15.4,8.7c-0.5,0.3-0.9,0.8-0.9,1.5v18.6
				c0,0.7,0.4,1.2,0.9,1.5l10.8-10.8L15.4,8.7z M33.3,18.2l-2.5-1.4L28,19.5l2.8,2.7l2.5-1.4C34.1,20.1,34.1,18.8,33.3,18.2
				L33.3,18.2z M17.8,29.7l11.9-6.8l-2.5-2.5L17.8,29.7z"/>
		</g>
	</g>
</g>
</svg>
