<?xml version="1.0" encoding="utf-8"?>
<!-- Generator: Adobe Illustrator 22.1.0, SVG Export Plug-In . SVG Version: 6.00 Build 0)  -->
<svg version="1.1" id="Layer_1" xmlns="http://www.w3.org/2000/svg" xmlns:xlink="http://www.w3.org/1999/xlink" x="0px" y="0px"
	 viewBox="0 0 400 400" style="enable-background:new 0 0 400 400;" xml:space="preserve">
<style type="text/css">
	.st0{fill:#E50872;}
</style>
<g>
	<g>
		<g>
			<g>
				<path class="st0" d="M200,265.7c-0.3,0-0.6,0-0.8-0.1l-88.7-31.6c-1-0.4-1.6-1.3-1.6-2.3V123.4c0-1.1,0.7-2,1.7-2.4l88.7-29.4
					c0.5-0.2,1.1-0.2,1.6,0l88.7,29.4c1,0.3,1.7,1.3,1.7,2.4v108.1c0,1-0.7,2-1.6,2.3l-88.7,31.6C200.6,265.6,200.3,265.7,200,265.7
					z M113.8,229.8l86.2,30.8l86.2-30.8V125.2L200,96.6l-86.2,28.6V229.8z"/>
			</g>
			<g>
				<path class="st0" d="M200,157c-0.3,0-0.6,0-0.8-0.1l-88.7-31.1c-1.3-0.5-2-1.9-1.5-3.2c0.5-1.3,1.9-2,3.2-1.5l87.9,30.8
					l87.9-30.8c1.3-0.5,2.7,0.2,3.2,1.5c0.5,1.3-0.2,2.7-1.5,3.2l-88.7,31.1C200.6,156.9,200.3,157,200,157z"/>
			</g>
			<g>
				<path class="st0" d="M200,265.8c-1.4,0-2.5-1.1-2.5-2.5V154.5c0-1.4,1.1-2.5,2.5-2.5c1.4,0,2.5,1.1,2.5,2.5v108.8
					C202.5,264.7,201.4,265.8,200,265.8z"/>
			</g>
		</g>
		<g>
			<g>
				<path class="st0" d="M239.7,298.3c-1.3,0-2.3-1-2.5-2.2c-0.1-1.4,0.9-2.6,2.2-2.7c81.4-8.3,140.6-41.6,140.6-79.3
					c0-23-22.1-45.1-60.7-60.7c-1.3-0.5-1.9-2-1.4-3.2c0.5-1.3,2-1.9,3.2-1.4c40.6,16.3,63.8,40.1,63.8,65.3
					c0,40.9-59.6,75.5-145,84.2C239.9,298.3,239.8,298.3,239.7,298.3z"/>
			</g>
			<g>
				<path class="st0" d="M160.3,298.3c-0.1,0-0.2,0-0.3,0C74.6,289.6,15,255,15,214.1c0-25.2,23.3-49,63.8-65.3
					c1.3-0.5,2.7,0.1,3.2,1.4c0.5,1.3-0.1,2.7-1.4,3.2C42.1,169,20,191.1,20,214.1c0,37.6,59.1,71,140.6,79.3
					c1.4,0.1,2.4,1.4,2.2,2.7C162.6,297.4,161.5,298.3,160.3,298.3z"/>
			</g>
		</g>
		<g>
			<path class="st0" d="M147.5,310c-0.7,0-1.3-0.3-1.8-0.8c-0.9-1-0.8-2.6,0.2-3.5l11-10.1l-9.1-10.9c-0.9-1.1-0.7-2.6,0.3-3.5
				c1.1-0.9,2.6-0.7,3.5,0.3l10.6,12.7c0.9,1,0.7,2.5-0.2,3.4l-12.8,11.7C148.7,309.8,148.1,310,147.5,310z"/>
		</g>
	</g>
</g>
</svg>
