<?xml version="1.0" encoding="utf-8"?>
<!-- Generator: Adobe Illustrator 22.1.0, SVG Export Plug-In . SVG Version: 6.00 Build 0)  -->
<svg version="1.1" baseProfile="tiny" id="Layer_1" xmlns="http://www.w3.org/2000/svg" xmlns:xlink="http://www.w3.org/1999/xlink"
	 x="0px" y="0px" viewBox="0 0 400 400" xml:space="preserve">
<g>
	<path fill="#D4AF67" d="M225.3,189.5c-0.4-0.4-0.8-0.7-1.3-0.9c-1-0.4-2.1-0.4-3.1,0c-0.5,0.2-1,0.5-1.3,0.9l-52,52
		c-1.6,1.6-1.6,4.2,0,5.8s4.2,1.6,5.8,0l45-45v140.1c0,2.3,1.8,4.1,4.1,4.1s4.1-1.8,4.1-4.1V202.3l45,45c0.8,0.8,1.8,1.2,2.9,1.2
		c1,0,2.1-0.4,2.9-1.2c1.6-1.6,1.6-4.2,0-5.8L225.3,189.5z"/>
	<path fill="#D4AF67" d="M345,140.2c-1.7-48.7-40.9-86.7-89.8-86.7c-30.1,0-58.3,15.3-74.9,40.2c-12-9.3-26.9-14.9-43.2-14.9
		c-34.5,0-63.9,25-69.5,58.7C30.6,142,2,173.9,2,211.6c0,41.1,33.5,74.6,74.6,74.6h78.7c2.3,0,4.1-1.8,4.1-4.1
		c0-2.3-1.8-4.1-4.1-4.1H76.6c-36.6,0-66.4-29.8-66.4-66.4c0-34.4,26.7-63.4,61-66.2c2.1,0.1,3.9-1.5,4.1-3.6
		C79,110.6,105.6,87,137.1,87c34.4,0,62.3,28,62.3,62.3c0,2.3,1.8,4.1,4.1,4.1s4.1-1.8,4.1-4.1c0-19.6-8.1-37.3-21-50.1
		c15-23.2,41-37.5,68.6-37.5c43.6,0,78.8,33.4,81.5,76.5c-4.3-0.8-8.7-1.3-13.3-1.3c-2.3,0-4.1,1.8-4.1,4.1s1.8,4.1,4.1,4.1
		c36.6,0,66.4,29.8,66.4,66.4S360,278,323.4,278h-34.1c-2.3,0-4.1,1.8-4.1,4.1c0,2.3,1.8,4.1,4.1,4.1h34.1
		c41.1,0,74.6-33.5,74.6-74.6C398,178,375.6,149.5,345,140.2z"/>
</g>
</svg>
