<?xml version="1.0" encoding="utf-8"?>
<!-- Generator: Adobe Illustrator 22.1.0, SVG Export Plug-In . SVG Version: 6.00 Build 0)  -->
<svg version="1.1" id="Layer_1" xmlns="http://www.w3.org/2000/svg" xmlns:xlink="http://www.w3.org/1999/xlink" x="0px" y="0px"
	 viewBox="0 0 400 400" style="enable-background:new 0 0 400 400;" xml:space="preserve">
<style type="text/css">
	.st0{fill:#E50872;}
</style>
<g>
	<g>
		<g>
			<path class="st0" d="M167.7,311.5H94.9c-6.8,0-12.3-5.5-12.3-12.3V131.6c0-6.8,5.5-12.3,12.3-12.3h72.8c6.8,0,12.3,5.5,12.3,12.3
				v167.6C180,306,174.5,311.5,167.7,311.5z M94.9,123.9c-4.2,0-7.7,3.5-7.7,7.7v167.6c0,4.2,3.5,7.7,7.7,7.7h72.8
				c4.2,0,7.7-3.5,7.7-7.7V131.6c0-4.2-3.5-7.7-7.7-7.7H94.9z"/>
		</g>
		<g>
			<path class="st0" d="M177.7,289.5H84.9c-1.3,0-2.3-1-2.3-2.3s1-2.3,2.3-2.3h92.8c1.3,0,2.3,1,2.3,2.3S179,289.5,177.7,289.5z"/>
		</g>
		<g>
			<path class="st0" d="M143.7,136.3H119c-1.3,0-2.3-1-2.3-2.3c0-1.3,1-2.3,2.3-2.3h24.7c1.3,0,2.3,1,2.3,2.3
				C146,135.2,145,136.3,143.7,136.3z"/>
		</g>
		<g>
			<g>
				<path class="st0" d="M131.3,222.2c-0.3,0-0.6,0-0.8-0.1l-29.9-11.3c-0.9-0.3-1.5-1.2-1.5-2.2v-35.2c0-1,0.6-1.9,1.5-2.2
					l29.9-10.5c0.5-0.2,1-0.2,1.5,0l29.9,10.5c0.9,0.3,1.5,1.2,1.5,2.2v35.2c0,1-0.6,1.8-1.5,2.2l-29.9,11.3
					C131.9,222.2,131.6,222.2,131.3,222.2z M103.7,207l27.6,10.4l27.6-10.4v-32l-27.6-9.7l-27.6,9.7V207z"/>
			</g>
			<g>
				<path class="st0" d="M131.3,186.8c-0.3,0-0.5,0-0.8-0.1l-29.9-11.1c-1.2-0.4-1.8-1.8-1.4-3c0.4-1.2,1.8-1.8,3-1.4l29.1,10.8
					l29.1-10.8c1.2-0.4,2.5,0.2,3,1.4c0.4,1.2-0.2,2.5-1.4,3l-29.9,11.1C131.9,186.8,131.6,186.8,131.3,186.8z"/>
			</g>
			<g>
				<path class="st0" d="M131.3,222.3c-1.3,0-2.3-1-2.3-2.3v-35.4c0-1.3,1-2.3,2.3-2.3c1.3,0,2.3,1,2.3,2.3v35.4
					C133.6,221.2,132.6,222.3,131.3,222.3z"/>
			</g>
		</g>
		<g>
			<path class="st0" d="M70.2,110.7"/>
		</g>
		<g>
			<path class="st0" d="M200.4,295.3c-0.4,0-0.8-0.1-1.1-0.3l-7.9-4.5c-1.1-0.6-1.5-2-0.9-3.1c0.6-1.1,2-1.5,3.1-0.9l6.8,3.8
				l171.9-97.7L200.4,95l-31.2,17.8c-1.1,0.6-2.5,0.2-3.1-0.9c-0.6-1.1-0.2-2.5,0.9-3.1l32.4-18.4c0.7-0.4,1.6-0.4,2.3,0
				l176.6,100.4c0.7,0.4,1.2,1.2,1.2,2c0,0.8-0.4,1.6-1.2,2L201.5,295C201.2,295.2,200.8,295.3,200.4,295.3z"/>
		</g>
		<g>
			<path class="st0" d="M161.2,273.1c-0.4,0-0.8-0.1-1.1-0.3l-59.7-33.9c-1.1-0.6-1.5-2-0.9-3.1c0.6-1.1,2-1.5,3.1-0.9l59.7,33.9
				c1.1,0.6,1.5,2,0.9,3.1C162.8,272.7,162,273.1,161.2,273.1z"/>
		</g>
		<g>
			<path class="st0" d="M70.2,221.3c-0.4,0-0.8-0.1-1.1-0.3l-46.4-26.4c-0.7-0.4-1.2-1.2-1.2-2c0-0.8,0.4-1.6,1.2-2l46.5-26.4
				c1.1-0.6,2.5-0.2,3.1,0.9c0.6,1.1,0.2,2.5-0.9,3.1l-42.9,24.4L71.3,217c1.1,0.6,1.5,2,0.9,3.1C71.7,220.9,71,221.3,70.2,221.3z"
				/>
		</g>
	</g>
</g>
</svg>
