<?xml version="1.0" encoding="utf-8"?>
<!-- Generator: Adobe Illustrator 22.1.0, SVG Export Plug-In . SVG Version: 6.00 Build 0)  -->
<svg version="1.1" id="Layer_1" xmlns="http://www.w3.org/2000/svg" xmlns:xlink="http://www.w3.org/1999/xlink" x="0px" y="0px"
	 viewBox="0 0 157.3 43" style="enable-background:new 0 0 157.3 43;" xml:space="preserve">
<style type="text/css">
	.st0{fill:url(#SVGID_1_);}
	.st1{fill:#1A1A1A;}
</style>
<g>
	<g>
		<linearGradient id="SVGID_1_" gradientUnits="userSpaceOnUse" x1="30.2622" y1="3.2152" x2="1.3732" y2="38.2075">
			<stop  offset="0" style="stop-color:#ED1A6B"/>
			<stop  offset="1" style="stop-color:#2E0A54"/>
		</linearGradient>
		<path class="st0" d="M28.6,3.5H3.4c-1.1,0-2,0.9-2,2v30.4c0,0.8,1,1,1.3,0.3L9,20.7c0.1-0.3,0.5-0.3,0.6,0l3.9,9.7
			c0.1,0.2,0.1,0.5,0,0.7L10.4,39c-0.1,0.2,0.1,0.5,0.3,0.5h10.6c0.3,0,0.4-0.3,0.3-0.5l-9.7-23.9c-0.1-0.4,0.1-0.7,0.5-0.7h7.6
			c0.2,0,0.4,0.1,0.5,0.3c0.4,1,2.1,5.1,8.7,21.5c0.3,0.7,1.3,0.5,1.3-0.3l0-30.5C30.6,4.4,29.7,3.5,28.6,3.5z"/>
	</g>
	<g>
		<path class="st1" d="M48.5,32.5h-5.3L42,36.2h-3.3L44,21h3.7L53,36.2h-3.4L48.5,32.5z M43.8,30.1h4l-1.9-6.2h-0.1L43.8,30.1z"/>
		<path class="st1" d="M57.7,36.2h-3.2V21h6.2c3.5,0,5.5,1.8,5.5,4.8c0,1.9-1,3.6-2.7,4.3l3.2,6H63l-2.8-5.5h-2.5V36.2z M57.7,28.3
			h2.7c1.6,0,2.5-0.9,2.5-2.4c0-1.5-1-2.4-2.6-2.4h-2.7V28.3z"/>
		<path class="st1" d="M77.1,36.2L71.5,21H73l4.8,13.3h0.1L82.7,21h1.5l-5.7,15.1H77.1z"/>
		<path class="st1" d="M85.9,36.2V21h1.4v15.1H85.9z"/>
		<path class="st1" d="M90.9,32.1c0.2,1.8,1.9,3.1,4.2,3.1c2.3,0,3.9-1.2,3.9-2.9c0-1.4-1-2.3-3.2-2.8l-1.9-0.5
			c-2.8-0.7-4-1.9-4-3.9c0-2.4,2.2-4.2,5.2-4.2c2.9,0,5.1,1.7,5.2,4.1h-1.4c-0.1-1.7-1.6-2.8-3.8-2.8c-2.1,0-3.6,1.2-3.6,2.8
			c0,1.3,0.9,2.1,3.2,2.6l1.6,0.4c3,0.8,4.3,1.9,4.3,4c0,2.7-2.1,4.4-5.5,4.4c-3.2,0-5.4-1.8-5.5-4.4H90.9z"/>
		<path class="st1" d="M104,30.8c0,2.5,1.7,4.3,4.4,4.3c2.8,0,4.4-1.7,4.4-4.3V21h1.4v9.8c0,3.3-2.2,5.5-5.9,5.5
			c-3.6,0-5.9-2.3-5.9-5.5V21h1.4V30.8z"/>
		<path class="st1" d="M125.3,31.5h-6.4l-1.7,4.6h-1.5l5.7-15.1h1.4l5.7,15.1H127L125.3,31.5z M119.4,30.3h5.5l-2.7-7.5h-0.1
			L119.4,30.3z"/>
		<path class="st1" d="M139.1,36.2h-9V21h1.4v13.8h7.6V36.2z"/>
	</g>
</g>
</svg>
