<?xml version="1.0" encoding="utf-8"?>
<!-- Generator: Adobe Illustrator 22.1.0, SVG Export Plug-In . SVG Version: 6.00 Build 0)  -->
<svg version="1.1" baseProfile="tiny" id="Layer_1" xmlns="http://www.w3.org/2000/svg" xmlns:xlink="http://www.w3.org/1999/xlink"
	 x="0px" y="0px" viewBox="0 0 80 80" xml:space="preserve">
<g>
	<path fill="#FFFFFF" d="M40,44.2c-4.8,0-8.7,3.9-8.7,8.7s3.9,8.7,8.7,8.7s8.7-3.9,8.7-8.7C48.7,48.1,44.8,44.3,40,44.2z M40,59.7
		L40,59.7c-3.8,0-6.8-3.1-6.8-6.8s3.1-6.8,6.8-6.8s6.8,3.1,6.8,6.8C46.8,56.7,43.8,59.7,40,59.7z"/>
	<path fill="#FFFFFF" d="M43.9,52h-3v-3c0-0.5-0.4-0.9-0.9-0.9c-0.5,0-0.9,0.4-0.9,0.9v3.9c0,0.5,0.4,0.9,0.9,0.9h3.9
		c0.5,0,0.9-0.4,0.9-0.9C44.8,52.4,44.4,52,43.9,52z"/>
	<path fill="#FFFFFF" d="M58.1,33.9c-0.5,0-0.9,0.4-0.9,0.9v4.2h-3.3v-12c0-0.5-0.4-0.9-0.9-0.9c-0.5,0-0.9,0.4-0.9,0.9V30l-3.3-3.3
		V12.9c0-0.5-0.4-0.9-0.9-0.9c-0.5,0-0.9,0.4-0.9,0.9v2.1L41.4,2.5C41.2,2,40.6,1.6,40,1.6c-0.6,0-1.2,0.4-1.4,0.9l-5.4,12.4v-2.1
		c0-0.5-0.4-0.9-0.9-0.9c-0.5,0-0.9,0.4-0.9,0.9v13.8L28,30v-2.9c0-0.5-0.4-0.9-0.9-0.9c-0.5,0-0.9,0.4-0.9,0.9v12h-3.3v-4.2
		c0-0.5-0.4-0.9-0.9-0.9c-0.5,0-0.9,0.4-0.9,0.9v29.7c0,1.2,1,2.2,2.2,2.2h3v9.4c0,1.2,1,2.2,2.2,2.2h23.2c1.2,0,2.2-1,2.2-2.2v-9.4
		h3c1.2,0,2.2-1,2.2-2.2V34.8C59,34.3,58.6,33.9,58.1,33.9z M26.2,64.9h-3.3v-24h3.3V64.9z M40,3.9l6.3,14.5H33.7L40,3.9z
		 M33.2,20.3h13.7v5.9h-3.3v-3c0-0.5-0.4-0.9-0.9-0.9c-0.5,0-0.9,0.4-0.9,0.9v3h-3.3v-3c0-0.5-0.4-0.9-0.9-0.9
		c-0.5,0-0.9,0.4-0.9,0.9v3h-3.3V20.3z M32.6,28h14.7l3.3,3.3H29.3L32.6,28z M31.3,76.5H28v-9.8h3.3V76.5z M36.5,76.5h-3.3v-9.8h3.3
		V76.5z M41.7,76.5h-3.3v-9.8h3.3V76.5z M46.8,76.5h-3.3v-9.8h3.3V76.5z M52,76.5h-3.3v-9.8H52V76.5z M52,64.9H28v-24h24V64.9z
		 M52,39.1h-3.3v-3c0-0.5-0.4-0.9-0.9-0.9c-0.5,0-0.9,0.4-0.9,0.9v3h-3.3v-3c0-0.5-0.4-0.9-0.9-0.9c-0.5,0-0.9,0.4-0.9,0.9v3h-3.3
		v-3c0-0.5-0.4-0.9-0.9-0.9c-0.5,0-0.9,0.4-0.9,0.9v3h-3.3v-3c0-0.5-0.4-0.9-0.9-0.9c-0.5,0-0.9,0.4-0.9,0.9v3H28v-5.9h24V39.1z
		 M53.8,64.9v-24h3.3l0,24H53.8z"/>
</g>
</svg>
