<?xml version="1.0" encoding="utf-8"?>
<!-- Generator: Adobe Illustrator 22.1.0, SVG Export Plug-In . SVG Version: 6.00 Build 0)  -->
<svg version="1.1" baseProfile="tiny" id="Layer_1" xmlns="http://www.w3.org/2000/svg" xmlns:xlink="http://www.w3.org/1999/xlink"
	 x="0px" y="0px" viewBox="0 0 80 80" xml:space="preserve">
<g>
	<path fill="#FFFFFF" d="M67,47.5c-0.3-0.8-1.1-1.4-2-1.4h-0.4V24.4h3.4v-5.9c0-0.4-0.3-0.7-0.7-0.7c-0.4,0-0.7,0.3-0.7,0.7v4.4
		h-2.1l-2.2-6.4V3.8c0-0.4-0.3-0.7-0.7-0.7c-0.4,0-0.7,0.3-0.7,0.7v8.4l-2.7-7.9c-0.1-0.4-0.4-0.5-0.7-0.5c-0.3,0-0.6,0.1-0.7,0.5
		l-2.9,8.4V3.8c0-0.4-0.3-0.7-0.7-0.7c-0.4,0-0.7,0.3-0.7,0.7V17l-2,5.9h-1.7v-4.4c0-0.4-0.3-0.7-0.7-0.7c-0.4,0-0.7,0.3-0.7,0.7
		v5.9h3v20.3l-3.7-6.1v-5.3c0-0.4-0.3-0.7-0.7-0.7c-0.4,0-0.7,0.3-0.7,0.7v2.8l-4.2-6.8v-6h2.7v-1.5h-2.7V19h-1.5v2.8h-2.7v1.5h2.7
		v6l-4.2,6.8v-2.8c0-0.4-0.3-0.7-0.7-0.7c-0.4,0-0.7,0.3-0.7,0.7v5.3l0,0L30,44.4v-20h3.1v-5.9c0-0.4-0.3-0.7-0.7-0.7
		s-0.7,0.3-0.7,0.7v4.4h-1.8l-2.2-6.4V3.8c0-0.4-0.3-0.7-0.7-0.7c-0.4,0-0.7,0.3-0.7,0.7v8.4l-2.7-7.9c-0.1-0.4-0.4-0.5-0.7-0.5
		S22.2,3.9,22,4.3l-2.9,8.4V3.8c0-0.4-0.3-0.7-0.7-0.7c-0.4,0-0.7,0.3-0.7,0.7V17l-2,5.9h-2v-4.4c0-0.4-0.3-0.7-0.7-0.7
		c-0.4,0-0.7,0.3-0.7,0.7v5.9h3.3v21.7h-0.5c-0.9,0-1.7,0.6-2,1.4l-2,5.6v23.8h58V53.1L67,47.5z M15.5,75.4h-3l0-22.1l2-5.7h1V75.4z
		 M57.4,6.8l5.5,16.1h-4.5v-4.4c0-0.4-0.3-0.7-0.7-0.7c-0.4,0-0.7,0.3-0.7,0.7v4.4h-5L57.4,6.8z M40,30.9l9.2,15.2h-8.4V40
		c0-0.4-0.3-0.7-0.7-0.7c-0.4,0-0.7,0.3-0.7,0.7v6.2h-8.6L40,30.9z M22.8,6.8l5.5,16.1h-4.8v-4.4c0-0.4-0.3-0.7-0.7-0.7
		c-0.4,0-0.7,0.3-0.7,0.7v4.4h-4.7L22.8,6.8z M17,24.4h11.6v21.7H17V24.4z M39.3,75.4h-5.3v-4.9h5.3V75.4z M39.3,69h-5.3v-6.5h5.3
		V69z M39.3,61h-5.3v-1.9c0-2.2,3-4.3,4.8-5.3l0.6-0.3V61z M46.1,75.4h-5.3v-4.9h5.3V75.4z M46.1,69h-5.3v-6.5h5.3V69z M46.1,61
		h-5.3v-7.6l0.6,0.3c1.8,1,4.8,3.1,4.8,5.3V61z M63.2,75.4H47.6V59.1c0-4.1-6.5-7.2-7.3-7.5L40,51.4l-0.3,0.1
		c-0.7,0.3-7.3,3.4-7.3,7.5v16.4H17V47.6h46.2V75.4z M63.2,46.1H51.6V24.4h11.6V46.1z M67.5,75.4h-2.8V47.6h0.8l2,5.8V75.4z"/>
	<path fill="#FFFFFF" d="M22.8,29c-1.6,0-3,1.3-3,3v6.1h6V32C25.7,30.4,24.4,29,22.8,29z M24.2,36.6h-3V32c0-0.8,0.7-1.5,1.5-1.5
		c0.8,0,1.5,0.7,1.5,1.5V36.6z"/>
	<path fill="#FFFFFF" d="M60.4,32c0-1.6-1.3-3-3-3c-1.6,0-3,1.3-3,3v6.1h6V32z M58.9,36.6h-3V32c0-0.8,0.7-1.5,1.5-1.5
		c0.8,0,1.5,0.7,1.5,1.5V36.6z"/>
	<path fill="#FFFFFF" d="M25.7,53.6c0-1.6-1.3-3-3-3c-1.6,0-3,1.3-3,3v6.1h6V53.6z M24.2,58.2h-3v-4.6c0-0.8,0.7-1.5,1.5-1.5
		c0.8,0,1.5,0.7,1.5,1.5V58.2z"/>
	<path fill="#FFFFFF" d="M60.4,53.6c0-1.6-1.3-3-3-3c-1.6,0-3,1.3-3,3v6.1h6V53.6z M58.9,58.2h-3v-4.6c0-0.8,0.7-1.5,1.5-1.5
		c0.8,0,1.5,0.7,1.5,1.5V58.2z"/>
	<rect x="20.6" y="65" fill="#FFFFFF" width="1.6" height="1.5"/>
	<rect x="25.1" y="68.7" fill="#FFFFFF" width="2.5" height="1.5"/>
	<rect x="20.4" y="71.4" fill="#FFFFFF" width="1.8" height="1.5"/>
	<rect x="50.3" y="62.2" fill="#FFFFFF" width="1.8" height="1.5"/>
	<rect x="47.1" y="50.4" fill="#FFFFFF" width="5.1" height="1.5"/>
	<rect x="28.8" y="50.4" fill="#FFFFFF" width="5.1" height="1.5"/>
	<rect x="54.3" y="66.1" fill="#FFFFFF" width="4.3" height="1.5"/>
	<rect x="50.9" y="70.1" fill="#FFFFFF" width="1.5" height="1.5"/>
	<rect x="57.5" y="71.3" fill="#FFFFFF" width="3.1" height="1.5"/>
	<rect x="20.4" y="42" fill="#FFFFFF" width="1.8" height="1.5"/>
	<rect x="57.6" y="41.7" fill="#FFFFFF" width="1.8" height="1.5"/>
</g>
</svg>
