<?xml version="1.0" encoding="utf-8"?>
<!-- Generator: Adobe Illustrator 22.1.0, SVG Export Plug-In . SVG Version: 6.00 Build 0)  -->
<svg version="1.1" baseProfile="tiny" id="Layer_1" xmlns="http://www.w3.org/2000/svg" xmlns:xlink="http://www.w3.org/1999/xlink"
	 x="0px" y="0px" viewBox="0 0 80 80" xml:space="preserve">
<g>
	<path fill="#FFFFFF" d="M73.2,76.5h-5.3v-1.9c0-0.6-0.5-1.2-1.2-1.2h-5.9V57.3c0-1-0.8-1.8-1.8-1.8h-4.9v-7c0-1-0.8-1.8-1.8-1.8
		h-4.2l-1.2-3.4c-0.3-0.7-0.9-1.2-1.7-1.2h-1.4l-1.5-29.5l4.7-5c0.1-0.1,0.2-0.3,0.1-0.5c0-0.2-0.1-0.3-0.3-0.4L38.4,2
		c-0.2-0.1-0.4-0.1-0.6,0c-0.2,0.1-0.3,0.3-0.3,0.5v9.7l-1.3,29.8h-1.4c-0.8,0-1.4,0.5-1.7,1.2l-1.2,3.4h-4.2c-1,0-1.8,0.8-1.8,1.8
		v7H21c-1,0-1.8,0.8-1.8,1.8v16.1h-5.9c-0.6,0-1.2,0.5-1.2,1.2v1.9H6.8c-0.4,0-0.8,0.3-0.8,0.8C6,77.7,6.3,78,6.8,78h6.9v-3h52.8v3
		h6.9c0.4,0,0.8-0.3,0.8-0.8C74,76.8,73.7,76.5,73.2,76.5z M39.1,4.2L45,7.5l-3.8,4.1h-2.1V4.2z M39.1,13.1h1.7l1.5,29h-4.5
		L39.1,13.1z M34.6,43.6h10.8l1.1,3h-13L34.6,43.6z M27.4,48.2h25.2v7.3H27.4V48.2z M28.3,73.4h-3V61.6h3V73.4z M37.2,73.4h-3V61.6
		h3V73.4z M46,73.4h-3V61.6h3V73.4z M54.9,73.4h-3V61.6h3V73.4z M59.3,73.4h-2.9V60.6c0-0.3-0.2-0.6-0.6-0.6h-5
		c-0.3,0-0.6,0.2-0.6,0.6v12.8h-2.8V60.6c0-0.3-0.2-0.6-0.6-0.6h-5c-0.3,0-0.6,0.2-0.6,0.6v12.8h-2.8V60.6c0-0.3-0.2-0.6-0.6-0.6h-5
		c-0.3,0-0.6,0.2-0.6,0.6v12.8h-2.8V60.6c0-0.3-0.2-0.6-0.6-0.6h-5c-0.3,0-0.6,0.2-0.6,0.6v12.8h-3V57h38.6V73.4z"/>
	<rect x="47.1" y="51.1" fill="#FFFFFF" width="1.5" height="1.5"/>
	<rect x="36.5" y="51.1" fill="#FFFFFF" width="1.5" height="1.5"/>
	<rect x="31.2" y="51.1" fill="#FFFFFF" width="1.5" height="1.5"/>
	<rect x="41.8" y="51.1" fill="#FFFFFF" width="1.5" height="1.5"/>
</g>
</svg>
