<?xml version="1.0" encoding="utf-8"?>
<!-- Generator: Adobe Illustrator 22.1.0, SVG Export Plug-In . SVG Version: 6.00 Build 0)  -->
<svg version="1.1" baseProfile="tiny" id="Layer_1" xmlns="http://www.w3.org/2000/svg" xmlns:xlink="http://www.w3.org/1999/xlink"
	 x="0px" y="0px" viewBox="0 0 189.5 33" xml:space="preserve">
<g>
	<path d="M3,16.6L3,16.6C3,8.9,8.9,2.9,16.8,2.9c5.4,0,8.8,2.2,11.1,5.5l-5.5,4.2c-1.5-1.9-3.2-3.1-5.7-3.1c-3.7,0-6.3,3.1-6.3,6.9
		v0.1c0,3.9,2.6,7,6.3,7c2.7,0,4.3-1.3,5.9-3.2l5.5,3.9c-2.5,3.4-5.8,5.9-11.6,5.9C9,30.1,3,24.4,3,16.6z"/>
	<path d="M40.1,3.2h7l11.2,26.4h-7.8l-1.9-4.7H38.4l-1.9,4.7h-7.6L40.1,3.2z M46.4,19.3l-2.9-7.5l-3,7.5H46.4z"/>
	<path d="M60.8,3.4h12.4c4,0,6.8,1,8.5,2.8c1.5,1.5,2.3,3.5,2.3,6.1v0.1c0,4-2.1,6.7-5.4,8.1l6.3,9.1h-8.4l-5.3-7.9H68v7.9h-7.3V3.4
		z M72.8,16c2.5,0,3.9-1.2,3.9-3.1v-0.1c0-2.1-1.5-3.1-3.9-3.1H68V16H72.8z"/>
	<path d="M96.3,3.2h7l11.2,26.4h-7.8l-1.9-4.7H94.6l-1.9,4.7h-7.6L96.3,3.2z M102.6,19.3l-2.9-7.5l-3,7.5H102.6z"/>
	<path d="M120,9.8h-7.9V3.4h23v6.4h-7.9v19.8H120V9.8z"/>
	<path fill="#D4AF67" d="M136.7,25.5l4.6-4.6c1.9,1.9,3.9,3,6.3,3c2.1,0,3.4-1,3.4-2.7v-0.1c0-1.7-1.5-2.7-4.3-2.7h-3.1l-1-3.8
		l6-5.4h-10V3.4h18.9v5.2l-6.3,5.4c3.7,0.8,6.8,2.9,6.8,7.4v0.1c0,5.3-4.3,8.7-10.1,8.7C142.8,30.1,139.2,28.3,136.7,25.5z"/>
	<path fill="#D4AF67" d="M161.6,3.4h10.1c9.4,0,14.8,5.4,14.8,13v0.1c0,7.6-5.5,13.2-14.9,13.2h-10V3.4z M171.8,23.2
		c4.3,0,7.2-2.4,7.2-6.6v-0.1c0-4.2-2.9-6.6-7.2-6.6h-3v13.3H171.8z"/>
</g>
</svg>
