<?xml version="1.0" encoding="utf-8"?>
<!-- Generator: Adobe Illustrator 22.1.0, SVG Export Plug-In . SVG Version: 6.00 Build 0)  -->
<svg version="1.1" baseProfile="tiny" id="Layer_1" xmlns="http://www.w3.org/2000/svg" xmlns:xlink="http://www.w3.org/1999/xlink"
	 x="0px" y="0px" viewBox="0 0 400 400" xml:space="preserve">
<g>
	<path fill="#E50872" d="M357.5,70.1H42.5c-2.3,0-4.2,1.9-4.2,4.2v251.3c0,2.3,1.9,4.2,4.2,4.2h314.9c2.3,0,4.2-1.9,4.2-4.2V74.3
		C361.6,72,359.8,70.1,357.5,70.1z M353.3,78.5v39.6H46.7V78.5H353.3z M46.7,321.5v-195h306.5v195H46.7z"/>
	<path fill="#E50872" d="M298,220.4l-47-30.3c-1.9-1.2-4.5-0.7-5.8,1.2c-1.3,1.9-0.7,4.5,1.2,5.8l41.5,26.8l-41.5,26.8
		c-1.9,1.3-2.5,3.8-1.2,5.8c0.8,1.2,2.1,1.9,3.5,1.9c0.8,0,1.6-0.2,2.3-0.7l47-30.3c1.2-0.8,1.9-2.1,1.9-3.5
		C299.9,222.5,299.2,221.2,298,220.4z"/>
	<path fill="#E50872" d="M154.8,191.3c-1.3-1.9-3.8-2.5-5.8-1.2l-47,30.3c-1.2,0.8-1.9,2.1-1.9,3.5c0,1.4,0.7,2.7,1.9,3.5l47,30.3
		c0.7,0.5,1.5,0.7,2.3,0.7c1.4,0,2.7-0.7,3.5-1.9c1.3-1.9,0.7-4.5-1.2-5.8L112,223.9l41.5-26.8C155.5,195.9,156,193.3,154.8,191.3z"
		/>
	<path fill="#E50872" d="M220.6,163.7c-2.2-0.8-4.6,0.3-5.4,2.5l-39.1,106.9c-0.8,2.2,0.3,4.6,2.5,5.4c0.5,0.2,1,0.3,1.4,0.3
		c1.7,0,3.3-1.1,3.9-2.7L223.1,169C223.9,166.9,222.8,164.5,220.6,163.7z"/>
	<circle fill="#E50872" cx="72.9" cy="98.3" r="7.2"/>
	<circle fill="#E50872" cx="110.4" cy="98.3" r="7.2"/>
	<circle fill="#E50872" cx="148" cy="98.3" r="7.2"/>
</g>
</svg>
