<?xml version="1.0" encoding="utf-8"?>
<!-- Generator: Adobe Illustrator 22.1.0, SVG Export Plug-In . SVG Version: 6.00 Build 0)  -->
<svg version="1.1" baseProfile="tiny" id="Layer_1" xmlns="http://www.w3.org/2000/svg" xmlns:xlink="http://www.w3.org/1999/xlink"
	 x="0px" y="0px" viewBox="0 0 124.5 39" xml:space="preserve">
<g>
	<g>
		<path fill="#666666" d="M117.2,38.5H7.3c-3.2,0-5.8-2.6-5.8-5.8V6.2c0-3.2,2.6-5.8,5.8-5.8h110c3.2,0,5.8,2.6,5.8,5.8v26.5
			C123,35.9,120.4,38.5,117.2,38.5z M7.3,1.4c-2.7,0-4.8,2.1-4.8,4.8v26.5c0,2.7,2.1,4.8,4.8,4.8h110c2.7,0,4.8-2.1,4.8-4.8V6.2
			c0-2.7-2.1-4.8-4.8-4.8H7.3z"/>
	</g>
	<g>
		<g>
			<path fill="#666666" d="M44.2,8.9c1.9,0,3,1.2,3,3.2s-1.1,3.2-3,3.2h-2.2V8.9H44.2z M43,14.4h1.2c1.3,0,2.1-0.8,2.1-2.3
				c0-1.5-0.7-2.3-2.1-2.3H43V14.4z"/>
			<path fill="#666666" d="M47.8,12.9c0-1.5,0.9-2.4,2.2-2.4c1.3,0,2.2,0.9,2.2,2.4s-0.9,2.4-2.2,2.4C48.7,15.3,47.8,14.4,47.8,12.9
				z M51.2,12.9c0-1-0.5-1.6-1.2-1.6c-0.7,0-1.2,0.6-1.2,1.6s0.5,1.6,1.2,1.6C50.7,14.5,51.2,13.9,51.2,12.9z"/>
			<path fill="#666666" d="M57.7,15.2h-1l-1-3.5l0,0l-1,3.5h-1l-1.3-4.6h0.9l0.8,3.6l0,0l1-3.6h0.9l1,3.6l0,0l0.8-3.6h0.9L57.7,15.2
				z"/>
			<path fill="#666666" d="M59.6,10.6h0.9v0.8l0,0c0.2-0.5,0.7-0.8,1.5-0.8c1,0,1.6,0.6,1.6,1.7v3h-0.9v-2.8c0-0.7-0.3-1.1-1-1.1
				c-0.7,0-1.1,0.5-1.1,1.2v2.7h-0.9L59.6,10.6L59.6,10.6z"/>
			<path fill="#666666" d="M64.5,8.9h0.9v6.3h-0.9V8.9z"/>
			<path fill="#666666" d="M66.2,12.9c0-1.5,0.9-2.4,2.2-2.4s2.2,0.9,2.2,2.4s-0.9,2.4-2.2,2.4C67.1,15.3,66.2,14.4,66.2,12.9z
				 M69.6,12.9c0-1-0.5-1.6-1.2-1.6s-1.2,0.6-1.2,1.6s0.5,1.6,1.2,1.6S69.6,13.9,69.6,12.9z"/>
			<path fill="#666666" d="M71.1,13.9c0-0.8,0.6-1.3,1.7-1.4l1.3-0.1v-0.3c0-0.5-0.3-0.8-0.9-0.8c-0.5,0-0.9,0.2-1,0.7h-0.9
				c0-0.8,0.8-1.5,1.9-1.5s1.9,0.6,1.9,1.5v3.2h-0.9v-0.8l0,0c-0.2,0.5-0.8,0.8-1.5,0.8C71.8,15.3,71.1,14.8,71.1,13.9z M74.1,13.5
				v-0.3l-1.1,0c-0.6,0-0.9,0.3-0.9,0.7c0,0.4,0.3,0.7,0.8,0.7C73.6,14.6,74.1,14.1,74.1,13.5z"/>
			<path fill="#666666" d="M75.8,12.9c0-1.5,0.8-2.4,2-2.4c0.7,0,1.2,0.3,1.5,0.8l0,0V8.9h0.9v6.3h-0.9v-0.8l0,0
				c-0.3,0.5-0.8,0.9-1.5,0.9C76.5,15.3,75.8,14.4,75.8,12.9z M76.7,12.9c0,1,0.5,1.6,1.2,1.6s1.2-0.6,1.2-1.6c0-1-0.5-1.6-1.2-1.6
				C77.2,11.4,76.7,11.9,76.7,12.9z"/>
			<path fill="#666666" d="M82.7,12.9c0-1.5,0.9-2.4,2.2-2.4c1.3,0,2.2,0.9,2.2,2.4s-0.9,2.4-2.2,2.4C83.5,15.3,82.7,14.4,82.7,12.9
				z M86.1,12.9c0-1-0.5-1.6-1.2-1.6c-0.7,0-1.2,0.6-1.2,1.6s0.5,1.6,1.2,1.6C85.6,14.5,86.1,13.9,86.1,12.9z"/>
			<path fill="#666666" d="M87.8,10.6h0.9v0.8l0,0c0.2-0.5,0.7-0.8,1.5-0.8c1,0,1.6,0.6,1.6,1.7v3h-0.9v-2.8c0-0.7-0.3-1.1-1-1.1
				c-0.7,0-1.1,0.5-1.1,1.2v2.7h-0.9L87.8,10.6L87.8,10.6z"/>
			<path fill="#666666" d="M95.7,9.5v1.1h0.9v0.7h-0.9v2.5c0,0.4,0.2,0.6,0.5,0.6c0.1,0,0.2,0,0.3,0v0.7c-0.1,0-0.3,0-0.5,0
				c-0.9,0-1.3-0.3-1.3-1.2v-2.6H94v-0.7h0.7V9.6L95.7,9.5L95.7,9.5z"/>
			<path fill="#666666" d="M97.4,8.9h0.9v2.5l0,0c0.2-0.5,0.8-0.8,1.5-0.8c1,0,1.6,0.7,1.6,1.7v3h-0.9v-2.8c0-0.7-0.3-1.1-1-1.1
				c-0.7,0-1.1,0.5-1.1,1.2v2.7h-0.9V8.9z"/>
			<path fill="#666666" d="M106.3,13.9c-0.1,0.8-0.9,1.5-2,1.5c-1.4,0-2.2-0.9-2.2-2.4s0.8-2.4,2.1-2.4c1.3,0,2.1,0.9,2.1,2.3v0.3
				h-3.3v0c0,0.8,0.5,1.3,1.2,1.3c0.5,0,0.9-0.3,1.1-0.7L106.3,13.9L106.3,13.9z M103.1,12.5h2.3c0-0.7-0.5-1.2-1.1-1.2
				C103.6,11.3,103.1,11.8,103.1,12.5z"/>
			<path fill="#666666" d="M48.6,26.1h-4.2l-1,3h-1.8l4-11.1h1.9l4,11.1h-1.8L48.6,26.1z M44.8,24.7h3.4l-1.7-4.9h0L44.8,24.7z"/>
			<path fill="#666666" d="M60.1,25.1c0,2.5-1.4,4.2-3.4,4.2c-1.2,0-2.1-0.6-2.5-1.5h0v4h-1.6V21.1h1.6v1.4h0
				c0.5-0.9,1.4-1.5,2.6-1.5C58.7,20.9,60.1,22.5,60.1,25.1z M58.3,25.1c0-1.7-0.8-2.8-2.1-2.8c-1.3,0-2.1,1.1-2.1,2.8
				c0,1.7,0.8,2.8,2.1,2.8C57.6,27.8,58.3,26.8,58.3,25.1z"/>
			<path fill="#666666" d="M68.9,25.1c0,2.5-1.4,4.2-3.4,4.2c-1.2,0-2.1-0.6-2.5-1.5h0v4h-1.7V21.1h1.6v1.4h0
				c0.5-0.9,1.4-1.5,2.6-1.5C67.6,20.9,68.9,22.5,68.9,25.1z M67.2,25.1c0-1.7-0.8-2.8-2.1-2.8c-1.3,0-2.1,1.1-2.1,2.8
				c0,1.7,0.8,2.8,2.1,2.8C66.4,27.8,67.2,26.8,67.2,25.1z"/>
			<path fill="#666666" d="M74.8,26c0.1,1.1,1.2,1.8,2.6,1.8c1.4,0,2.4-0.7,2.4-1.7c0-0.9-0.6-1.4-2-1.7l-1.4-0.3c-2-0.5-3-1.5-3-3
				c0-1.9,1.7-3.2,4.1-3.2c2.3,0,4,1.3,4,3.2h-1.7c-0.1-1.1-1-1.8-2.3-1.8S75.2,20,75.2,21c0,0.8,0.6,1.2,2,1.6l1.2,0.3
				c2.3,0.5,3.2,1.5,3.2,3.1c0,2-1.7,3.4-4.3,3.4c-2.4,0-4.1-1.3-4.2-3.3L74.8,26L74.8,26z"/>
			<path fill="#666666" d="M85.1,19.1V21h1.5v1.3h-1.5v4.5c0,0.7,0.3,1,1,1c0.1,0,0.4,0,0.5,0v1.3c-0.2,0-0.5,0.1-0.9,0.1
				c-1.6,0-2.3-0.6-2.3-2.2v-4.6h-1.1v-1.3h1.2v-1.9L85.1,19.1L85.1,19.1z"/>
			<path fill="#666666" d="M87.4,25.1c0-2.6,1.5-4.2,3.8-4.2s3.8,1.6,3.8,4.2c0,2.6-1.5,4.2-3.8,4.2S87.4,27.6,87.4,25.1z
				 M93.4,25.1c0-1.8-0.8-2.8-2.1-2.8s-2.1,1-2.1,2.8c0,1.8,0.8,2.8,2.1,2.8C92.6,27.9,93.4,26.9,93.4,25.1z"/>
			<path fill="#666666" d="M96.4,21h1.6v1.4h0c0.3-0.9,1-1.5,2-1.5c0.2,0,0.4,0,0.6,0v1.6c-0.1,0-0.4-0.1-0.7-0.1
				c-1.1,0-1.7,0.7-1.7,1.9v4.8h-1.7L96.4,21L96.4,21z"/>
			<path fill="#666666" d="M108.1,26.7c-0.2,1.5-1.6,2.5-3.5,2.5c-2.4,0-3.8-1.6-3.8-4.1s1.5-4.2,3.8-4.2c2.2,0,3.7,1.6,3.7,4.1v0.6
				h-5.7v0.1c0,1.4,0.8,2.3,2.1,2.3c0.9,0,1.7-0.5,1.9-1.2L108.1,26.7L108.1,26.7z M102.5,24.3h4.1c0-1.2-0.8-2.1-2-2.1
				C103.4,22.2,102.6,23.1,102.5,24.3z"/>
		</g>
		<g>
			<path fill="#666666" d="M28.8,19.7c0-2.7,2.2-4,2.3-4c-1.2-1.8-3.2-2-3.9-2.1c-1.7-0.1-3.2,1-4.1,1c-0.8,0-2.1-0.9-3.5-0.9
				c-1.8,0-3.4,1-4.3,2.6c-1.9,3.2-0.5,8,1.3,10.6c0.9,1.3,2,2.7,3.3,2.7c1.3,0,1.9-0.9,3.5-0.9s2,0.9,3.5,0.8
				c1.4,0,2.3-1.3,3.2-2.6c1-1.5,1.4-2.9,1.5-3C31.6,23.9,28.8,22.9,28.8,19.7L28.8,19.7z M26.1,11.9c0.7-0.9,1.2-2.1,1.1-3.4
				c-1.1,0-2.3,0.7-3.1,1.6c-0.7,0.8-1.3,2-1.1,3.3C24.2,13.4,25.4,12.8,26.1,11.9L26.1,11.9z"/>
		</g>
	</g>
</g>
</svg>
