<?xml version="1.0" encoding="utf-8"?>
<!-- Generator: Adobe Illustrator 22.1.0, SVG Export Plug-In . SVG Version: 6.00 Build 0)  -->
<svg version="1.1" baseProfile="tiny" id="Layer_1" xmlns="http://www.w3.org/2000/svg" xmlns:xlink="http://www.w3.org/1999/xlink"
	 x="0px" y="0px" viewBox="0 0 400 400" xml:space="preserve">
<g>
	<path fill="#E50872" d="M225,189.2c-0.5-0.5-1-0.9-1.6-1.1c-1.2-0.5-2.6-0.5-3.8,0c-0.5,0.2-1.2,0.6-1.6,1.1L168.2,239
		c-2,2-2,5.1,0,7.1c2,2,5.1,2,7.1,0l41.2-41.2v131.5c0,2.8,2.2,5,5,5c2.8,0,5-2.2,5-5V204.8l41.2,41.2c1.9,1.9,5.2,1.9,7.1,0
		c2-2,2-5.1,0-7.1L225,189.2z"/>
	<path fill="#E50872" d="M339.9,141.9c-2-46.8-40.1-83.3-87-83.3c-28.8,0-55.6,14.2-72,38c-12-9-26.2-13.8-41.1-13.8
		c-33.4,0-61.6,23.6-67.5,56.3C36.4,144,9.4,174.7,9.4,211.1c0,40,32.5,72.5,72.5,72.5h75.3c2.8,0,5-2.2,5-5c0-2.8-2.2-5-5-5H81.9
		c-34.5,0-62.5-28-62.5-62.5c0-32.3,25.2-59.7,57.3-62.3c2.6,0.1,4.8-1.8,5.1-4.4c3.5-29.4,28.5-51.5,58.1-51.5
		c32.3,0,58.6,26.3,58.6,58.6c0,2.8,2.2,5,5,5s5-2.2,5-5c0-18.1-7-35.1-19.8-48.1c14.2-21.4,38.7-34.7,64.3-34.7
		c40.8,0,73.6,30.4,76.8,70.8c-4-0.7-7.8-1-11.6-1c-2.8,0-5,2.2-5,5c0,2.8,2.2,5,5,5c34.5,0,62.5,28,62.5,62.5
		c0,34.5-28,62.6-62.5,62.6h-32.6c-2.8,0-5,2.2-5,5c0,2.8,2.2,5,5,5h32.6c40,0,72.5-32.5,72.5-72.5
		C390.6,179.7,369.8,151.4,339.9,141.9z"/>
</g>
</svg>
