<?xml version="1.0" encoding="utf-8"?>
<!-- Generator: Adobe Illustrator 22.1.0, SVG Export Plug-In . SVG Version: 6.00 Build 0)  -->
<svg version="1.1" baseProfile="tiny" id="Layer_1" xmlns="http://www.w3.org/2000/svg" xmlns:xlink="http://www.w3.org/1999/xlink"
	 x="0px" y="0px" viewBox="0 0 200 200" xml:space="preserve">
<g>
	<path fill="#F2F2F2" d="M190.5,100c0-50-40.5-90.5-90.5-90.5S9.5,50,9.5,100c0,26.4,11.3,50.1,29.3,66.7
		C44.7,138.3,69.9,117,100,117s55.3,21.3,61.2,49.7C179.2,150.1,190.5,126.4,190.5,100z M100,109c-16.6,0-30-13.4-30-30
		s13.4-30,30-30s30,13.4,30,30S116.6,109,100,109z"/>
	<circle fill="#E50872" cx="100" cy="79" r="30"/>
	<path fill="#E50872" d="M100,117c-30.1,0-55.3,21.3-61.2,49.7c16.1,14.8,37.6,23.8,61.2,23.8s45.1-9,61.2-23.8
		C155.3,138.3,130.1,117,100,117z"/>
</g>
</svg>
