<?xml version="1.0" encoding="utf-8"?>
<!-- Generator: Adobe Illustrator 22.1.0, SVG Export Plug-In . SVG Version: 6.00 Build 0)  -->
<svg version="1.1" baseProfile="tiny" id="Layer_1" xmlns="http://www.w3.org/2000/svg" xmlns:xlink="http://www.w3.org/1999/xlink"
	 x="0px" y="0px" viewBox="0 0 200 200" xml:space="preserve">
<g>
	<g>
		<path fill="#D4AF67" d="M52.8,138.2c0-9.2,4.5-14.9,11.8-14.9c3.9,0,7.1,1.9,8.6,5.1h0.4v-15.7h7.6v40H74v-4.5h-0.5
			c-1.5,3.1-4.8,5-8.9,5C57.3,153.2,52.8,147.5,52.8,138.2z M60.7,138.2c0,5.4,2.4,8.6,6.5,8.6s6.6-3.2,6.6-8.5
			c0-5.3-2.5-8.6-6.6-8.6S60.7,132.9,60.7,138.2z"/>
		<path fill="#D4AF67" d="M87.8,144.5c0-5.3,4-8.3,11.2-8.7l7-0.4v-2.4c0-2.4-1.7-3.8-4.9-3.8c-2.8,0-4.6,0.9-5.2,2.7h-7
			c0.5-5.4,5.4-8.7,12.7-8.7c7.7,0,12,3.6,12,9.8v19.8h-7.4V149h-0.5c-1.5,2.7-4.7,4.2-8.4,4.2C91.7,153.2,87.8,149.8,87.8,144.5z
			 M106,142.2v-2.1l-5.9,0.4c-3.3,0.2-4.9,1.4-4.9,3.5c0,2.2,1.9,3.5,4.5,3.5C103.3,147.4,106,145.2,106,142.2z"/>
		<path fill="#D4AF67" d="M146.9,144.5c-1.2,5.5-6.1,8.9-13.2,8.9c-8.8,0-14-5.6-14-15c0-9.4,5.3-15.3,13.9-15.3
			c8.5,0,13.6,5.4,13.6,14.6v2.3h-19.9v0.4c0.1,4.3,2.6,7,6.6,7c3,0,5.1-1.1,5.9-3H146.9z M127.3,135.2h12.3c-0.2-3.8-2.5-6.2-6-6.2
			C130.1,129,127.6,131.5,127.3,135.2z"/>
	</g>
	<g>
		<path fill="#D4AF67" d="M168.5,43.2c0-0.1-0.1-0.2-0.1-0.3c0,0,0-0.1,0-0.1c0-0.1-0.1-0.2-0.2-0.3c0,0,0-0.1,0-0.1
			c-0.1-0.1-0.2-0.2-0.3-0.3l-27.4-27.4c-0.1-0.1-0.2-0.2-0.3-0.3c0,0-0.1,0-0.1-0.1c-0.1-0.1-0.2-0.1-0.3-0.2c0,0-0.1,0-0.1,0
			c-0.1,0-0.2-0.1-0.3-0.1c-0.1,0-0.3,0-0.5,0H33.8c-1.3,0-2.3,1-2.3,2.3v167.5c0,1.3,1,2.3,2.3,2.3h132.5c1.3,0,2.3-1,2.3-2.3V43.7
			C168.5,43.5,168.5,43.4,168.5,43.2z M141.1,21.8l19.6,19.6h-19.6V21.8z M36,181.5V18.5h100.5v25.1c0,1.3,1,2.3,2.3,2.3H164v135.5
			H36z"/>
	</g>
</g>
</svg>
