<?xml version="1.0" encoding="utf-8"?>
<!-- Generator: Adobe Illustrator 22.1.0, SVG Export Plug-In . SVG Version: 6.00 Build 0)  -->
<svg version="1.1" baseProfile="tiny" id="Layer_1" xmlns="http://www.w3.org/2000/svg" xmlns:xlink="http://www.w3.org/1999/xlink"
	 x="0px" y="0px" viewBox="0 0 200 200" xml:space="preserve">
<g>
	<g>
		<path fill="#D4AF67" d="M48.3,138.2c0-9.2,4.5-14.9,11.8-14.9c3.9,0,7.1,1.9,8.6,5.1h0.4v-15.7h7.6v40h-7.4v-4.5H69
			c-1.5,3.1-4.8,5-8.9,5C52.8,153.2,48.3,147.5,48.3,138.2z M56.2,138.2c0,5.4,2.4,8.6,6.5,8.6c4.1,0,6.6-3.2,6.6-8.5
			c0-5.3-2.5-8.6-6.6-8.6C58.7,129.7,56.2,132.9,56.2,138.2z"/>
		<path fill="#D4AF67" d="M113.9,152.7h-8.1l-5.2-20h-0.5l-5.1,20h-8l-7.7-29H87l4.3,20.8h0.5l5.1-20.8h7.3l5.1,20.8h0.5l4.3-20.8
			h7.6L113.9,152.7z"/>
		<path fill="#D4AF67" d="M123.6,155.2h7.6c0.4,1.8,2.5,2.9,5.9,2.9c4.1,0,6.5-1.9,6.5-5.1v-5.4H143c-1.6,3-4.7,4.7-8.7,4.7
			c-7.2,0-11.7-5.6-11.7-14.3c0-9,4.5-14.7,11.9-14.7c3.9,0,7.3,1.9,8.8,5.1h0.5v-4.7h7.4v28.9c0,6.8-5.5,11.1-14.3,11.1
			C129.1,163.7,124,160.3,123.6,155.2z M143.6,138c0-5.1-2.5-8.3-6.6-8.3s-6.5,3.2-6.5,8.3c0,5.1,2.4,8.3,6.5,8.3
			C141.1,146.3,143.6,143.1,143.6,138z"/>
	</g>
	<g>
		<path fill="#D4AF67" d="M168.5,43.2c0-0.1-0.1-0.2-0.1-0.3c0,0,0-0.1,0-0.1c0-0.1-0.1-0.2-0.2-0.3c0,0,0-0.1,0-0.1
			c-0.1-0.1-0.2-0.2-0.3-0.3l-27.4-27.4c-0.1-0.1-0.2-0.2-0.3-0.3c0,0-0.1,0-0.1-0.1c-0.1-0.1-0.2-0.1-0.3-0.2c0,0-0.1,0-0.1,0
			c-0.1,0-0.2-0.1-0.3-0.1c-0.1,0-0.3,0-0.5,0H33.8c-1.3,0-2.3,1-2.3,2.3v167.5c0,1.3,1,2.3,2.3,2.3h132.5c1.3,0,2.3-1,2.3-2.3V43.7
			C168.5,43.5,168.5,43.4,168.5,43.2z M141.1,21.8l19.6,19.6h-19.6V21.8z M36,181.5V18.5h100.5v25.1c0,1.3,1,2.3,2.3,2.3H164v135.5
			H36z"/>
	</g>
</g>
</svg>
