<?xml version="1.0" encoding="utf-8"?>
<!-- Generator: Adobe Illustrator 22.1.0, SVG Export Plug-In . SVG Version: 6.00 Build 0)  -->
<svg version="1.1" baseProfile="tiny" id="Layer_1" xmlns="http://www.w3.org/2000/svg" xmlns:xlink="http://www.w3.org/1999/xlink"
	 x="0px" y="0px" viewBox="0 0 200 200" xml:space="preserve">
<g>
	<path fill="#D4AF67" d="M168.5,43.2c0-0.1-0.1-0.2-0.1-0.3c0,0,0-0.1,0-0.1c0-0.1-0.1-0.2-0.2-0.3c0,0,0-0.1,0-0.1
		c-0.1-0.1-0.2-0.2-0.3-0.3l-27.4-27.4c-0.1-0.1-0.2-0.2-0.3-0.3c0,0-0.1,0-0.1-0.1c-0.1-0.1-0.2-0.1-0.3-0.2c0,0-0.1,0-0.1,0
		c-0.1,0-0.2-0.1-0.3-0.1c-0.1,0-0.3,0-0.5,0H33.8c-1.3,0-2.3,1-2.3,2.3v167.5c0,1.3,1,2.3,2.3,2.3h132.5c1.3,0,2.3-1,2.3-2.3V43.7
		C168.5,43.5,168.5,43.4,168.5,43.2z M141.1,21.8l19.6,19.6h-19.6V21.8z M36,181.5V18.5h100.5v25.1c0,1.3,1,2.3,2.3,2.3H164v135.5
		H36z"/>
</g>
<g>
	<path fill="#D4AF67" d="M56,155.2h7.5c0.4,1.8,2.5,2.9,5.8,2.9c4.1,0,6.5-1.9,6.5-5.1v-5.3h-0.5c-1.6,3-4.6,4.7-8.7,4.7
		c-7.2,0-11.7-5.6-11.7-14.3c0-8.9,4.5-14.6,11.8-14.6c3.9,0,7.2,1.9,8.8,5.1h0.5v-4.6h7.4v28.7c0,6.8-5.5,11-14.2,11
		C61.6,163.7,56.5,160.3,56,155.2z M75.9,138.1c0-5.1-2.5-8.3-6.6-8.3c-4.1,0-6.5,3.2-6.5,8.2c0,5.1,2.4,8.3,6.5,8.3
		S75.9,143.1,75.9,138.1z"/>
	<path fill="#D4AF67" d="M91.4,112.9H99v39.9h-7.6V112.9z"/>
	<path fill="#D4AF67" d="M116.7,117v7.1h6v6h-6v13c0,2.5,1.2,3.7,3.7,3.7c1,0,1.5,0,2.3-0.1v5.8c-0.9,0.2-2.4,0.3-3.8,0.3
		c-7,0-9.8-2.3-9.8-7.9v-14.8h-4.5v-6h4.5V117H116.7z"/>
	<path fill="#D4AF67" d="M131.5,130.2h-4.7v-6h4.7v-2.9c0-5.7,2.9-8.6,9.9-8.6c1.5,0,2.8,0.1,3.9,0.3v5.4c-0.5-0.1-1.3-0.1-2.3-0.1
		c-3,0-4.1,1.2-4.1,3.6v2.4h6.1v6h-6v22.6h-7.6V130.2z"/>
</g>
</svg>
