<?xml version="1.0" encoding="utf-8"?>
<!-- Generator: Adobe Illustrator 22.1.0, SVG Export Plug-In . SVG Version: 6.00 Build 0)  -->
<svg version="1.1" baseProfile="tiny" id="Layer_1" xmlns="http://www.w3.org/2000/svg" xmlns:xlink="http://www.w3.org/1999/xlink"
	 x="0px" y="0px" viewBox="0 0 200 200" xml:space="preserve">
<g>
	<g>
		<path fill="#D4AF67" d="M60.5,138.2c0-9.4,5.4-15.1,14.3-15.1c8.8,0,14.3,5.7,14.3,15.1c0,9.5-5.4,15.1-14.3,15.1
			C65.9,153.4,60.5,147.7,60.5,138.2z M81.2,138.2c0-5.6-2.4-8.9-6.4-8.9c-4.1,0-6.4,3.3-6.4,8.9c0,5.7,2.3,8.9,6.4,8.9
			C78.8,147.1,81.2,143.9,81.2,138.2z"/>
		<path fill="#D4AF67" d="M103.4,148.2h-0.5v4.5h-7.4v-40h7.6v15.7h0.5c1.5-3.2,4.7-5.1,8.7-5.1c7.3,0,11.7,5.6,11.7,15
			c0,9.3-4.5,15-11.7,15C108.2,153.2,105,151.3,103.4,148.2z M103.1,138.3c0,5.3,2.5,8.5,6.6,8.5c4.1,0,6.5-3.3,6.5-8.6
			c0-5.3-2.5-8.5-6.5-8.5C105.7,129.7,103.1,133,103.1,138.3z"/>
		<path fill="#D4AF67" d="M138,153.6c0,5.9-3.5,9-10.2,9c-0.6,0-1.7-0.1-2-0.1v-5.9c0.2,0,0.7,0,1,0c2.7,0,3.7-0.9,3.7-3.3v-29.7
			h7.6V153.6z M129.7,115.8c0-2.3,1.8-3.9,4.5-3.9c2.7,0,4.5,1.6,4.5,3.9c0,2.3-1.8,3.9-4.5,3.9
			C131.5,119.7,129.7,118.1,129.7,115.8z"/>
	</g>
	<g>
		<path fill="#D4AF67" d="M168.5,43.2c0-0.1-0.1-0.2-0.1-0.3c0,0,0-0.1,0-0.1c0-0.1-0.1-0.2-0.2-0.3c0,0,0-0.1,0-0.1
			c-0.1-0.1-0.2-0.2-0.3-0.3l-27.4-27.4c-0.1-0.1-0.2-0.2-0.3-0.3c0,0-0.1,0-0.1-0.1c-0.1-0.1-0.2-0.1-0.3-0.2c0,0-0.1,0-0.1,0
			c-0.1,0-0.2-0.1-0.3-0.1c-0.1,0-0.3,0-0.5,0H33.8c-1.3,0-2.3,1-2.3,2.3v167.5c0,1.3,1,2.3,2.3,2.3h132.5c1.3,0,2.3-1,2.3-2.3V43.7
			C168.5,43.5,168.5,43.4,168.5,43.2z M141.1,21.8l19.6,19.6h-19.6V21.8z M36,181.5V18.5h100.5v25.1c0,1.3,1,2.3,2.3,2.3H164v135.5
			H36z"/>
	</g>
</g>
</svg>
