<?xml version="1.0" encoding="utf-8"?>
<!-- Generator: Adobe Illustrator 22.1.0, SVG Export Plug-In . SVG Version: 6.00 Build 0)  -->
<svg version="1.1" baseProfile="tiny" id="Layer_1" xmlns="http://www.w3.org/2000/svg" xmlns:xlink="http://www.w3.org/1999/xlink"
	 x="0px" y="0px" viewBox="0 0 200 200" xml:space="preserve">
<g>
	<g>
		<path fill="#D4AF67" d="M81,123.1c7.4,0,11.7,3.1,12.1,8.6h-7.1c-0.4-1.9-2.2-3-5-3c-2.7,0-4.8,1.2-4.8,3.1c0,1.4,1.2,2.3,3.9,2.9
			l5.4,1.2c5.6,1.2,8.1,3.6,8.1,7.9c0,5.8-5.2,9.6-12.8,9.6c-7.6,0-12.3-3.1-12.8-8.7h7.5c0.6,2,2.4,3.1,5.5,3.1c3,0,5-1.2,5-3.1
			c0-1.4-1.1-2.3-3.7-2.8l-5.3-1.2c-5.6-1.2-8.4-3.9-8.4-8.4C69,126.8,73.8,123.1,81,123.1z"/>
		<path fill="#D4AF67" d="M109.8,116.9v7.2h6v6h-6v13c0,2.5,1.2,3.7,3.8,3.7c1,0,1.5,0,2.3-0.1v5.8c-0.9,0.2-2.4,0.3-3.8,0.3
			c-7,0-9.8-2.3-9.8-7.9v-14.8h-4.5v-6h4.5v-7.2H109.8z"/>
		<path fill="#D4AF67" d="M122.5,112.7h7.6v40h-7.6V112.7z"/>
	</g>
	<g>
		<path fill="#D4AF67" d="M168.5,43.2c0-0.1-0.1-0.2-0.1-0.3c0,0,0-0.1,0-0.1c0-0.1-0.1-0.2-0.2-0.3c0,0,0-0.1,0-0.1
			c-0.1-0.1-0.2-0.2-0.3-0.3l-27.4-27.4c-0.1-0.1-0.2-0.2-0.3-0.3c0,0-0.1,0-0.1-0.1c-0.1-0.1-0.2-0.1-0.3-0.2c0,0-0.1,0-0.1,0
			c-0.1,0-0.2-0.1-0.3-0.1c-0.1,0-0.3,0-0.5,0H33.8c-1.3,0-2.3,1-2.3,2.3v167.5c0,1.3,1,2.3,2.3,2.3h132.5c1.3,0,2.3-1,2.3-2.3V43.7
			C168.5,43.5,168.5,43.4,168.5,43.2z M141.1,21.8l19.6,19.6h-19.6V21.8z M36,181.5V18.5h100.5v25.1c0,1.3,1,2.3,2.3,2.3H164v135.5
			H36z"/>
	</g>
</g>
</svg>
