<?xml version="1.0" encoding="utf-8"?>
<!-- Generator: Adobe Illustrator 21.0.0, SVG Export Plug-In . SVG Version: 6.00 Build 0)  -->
<svg version="1.1" id="Layer_1" xmlns="http://www.w3.org/2000/svg" xmlns:xlink="http://www.w3.org/1999/xlink" x="0px" y="0px"
	 viewBox="0 0 200 200" style="enable-background:new 0 0 200 200;" xml:space="preserve">
<style type="text/css">
	.st0{fill:#E50872;}
</style>
<g>
	<g>
		<path class="st0" d="M62.4,130.4H67c3.6,0,6-2.1,6-5.2c0-3-2.4-5-6.1-5c-3.7,0-6.1,2.1-6.3,5.4h-7.3c0.3-7.2,5.6-11.7,13.9-11.7
			c7.8,0,13.4,4.3,13.4,10.2c0,4.4-2.8,7.8-7,8.7v0.5c5.2,0.6,8.5,4,8.5,9c0,6.6-6.3,11.5-14.9,11.5c-8.5,0-14.2-4.7-14.5-11.8h7.6
			c0.2,3.2,2.9,5.2,7,5.2c4,0,6.7-2.2,6.7-5.5s-2.6-5.4-6.9-5.4h-4.7C62.4,136.3,62.4,130.4,62.4,130.4z"/>
		<path class="st0" d="M87.5,138.2c0-9.2,4.5-14.9,11.8-14.9c3.9,0,7.1,1.9,8.6,5.1h0.4v-15.7h7.6v40h-7.4v-4.5H108
			c-1.5,3.1-4.8,5-8.9,5C92,153.2,87.5,147.5,87.5,138.2z M95.4,138.2c0,5.4,2.4,8.6,6.5,8.6s6.6-3.2,6.6-8.5s-2.5-8.6-6.6-8.6
			S95.4,132.9,95.4,138.2z"/>
		<path class="st0" d="M135.4,123.1c7.4,0,11.7,3.1,12.1,8.6h-7.1c-0.4-1.9-2.2-3-5-3c-2.7,0-4.8,1.2-4.8,3.1c0,1.4,1.2,2.3,3.9,2.9
			l5.4,1.2c5.6,1.2,8.1,3.6,8.1,7.9c0,5.8-5.2,9.6-12.8,9.6c-7.6,0-12.3-3.1-12.8-8.7h7.5c0.6,2,2.4,3.1,5.5,3.1c3,0,5-1.2,5-3.1
			c0-1.4-1.1-2.3-3.7-2.8l-5.3-1.2c-5.6-1.2-8.4-3.9-8.4-8.4C123.3,126.8,128.2,123.1,135.4,123.1z"/>
	</g>
	<g>
		<path class="st0" d="M168.5,43.2c0-0.1-0.1-0.2-0.1-0.3v-0.1c0-0.1-0.1-0.2-0.2-0.3v-0.1c-0.1-0.1-0.2-0.2-0.3-0.3l-27.4-27.4
			c-0.1-0.1-0.2-0.2-0.3-0.3c0,0-0.1,0-0.1-0.1c-0.1-0.1-0.2-0.1-0.3-0.2h-0.1c-0.1,0-0.2-0.1-0.3-0.1s-0.3,0-0.5,0H33.8
			c-1.3,0-2.3,1-2.3,2.3v167.5c0,1.3,1,2.3,2.3,2.3h132.5c1.3,0,2.3-1,2.3-2.3V43.7C168.5,43.5,168.5,43.4,168.5,43.2z M141.1,21.8
			l19.6,19.6h-19.6V21.8z M36,181.5v-163h100.5v25.1c0,1.3,1,2.3,2.3,2.3H164v135.5H36V181.5z"/>
	</g>
</g>
</svg>
