<?xml version="1.0" encoding="utf-8"?>
<!-- Generator: Adobe Illustrator 21.0.0, SVG Export Plug-In . SVG Version: 6.00 Build 0)  -->
<svg version="1.1" id="Layer_1" xmlns="http://www.w3.org/2000/svg" xmlns:xlink="http://www.w3.org/1999/xlink" x="0px" y="0px"
	 viewBox="0 0 200 200" style="enable-background:new 0 0 200 200;" xml:space="preserve">
<style type="text/css">
	.st0{fill:#E50872;}
</style>
<g>
	<g>
		<path class="st0" d="M62.7,130.1H58v-6h4.7v-2.9c0-5.8,2.9-8.7,9.9-8.7c1.6,0,2.8,0.1,3.9,0.3v5.4c-0.5-0.1-1.3-0.1-2.3-0.1
			c-3,0-4.1,1.2-4.1,3.7v2.4h6.1v6h-6v22.7h-7.6v-22.8H62.7z"/>
		<path class="st0" d="M90.6,148.2h-0.5v4.5h-7.4v-40h7.6v15.7h0.5c1.5-3.2,4.7-5.1,8.7-5.1c7.3,0,11.7,5.6,11.7,15
			c0,9.3-4.5,15-11.7,15C95.4,153.2,92.1,151.3,90.6,148.2z M90.3,138.3c0,5.3,2.5,8.5,6.6,8.5s6.5-3.3,6.5-8.6s-2.5-8.5-6.5-8.5
			C92.8,129.7,90.3,133,90.3,138.3z"/>
		<path class="st0" d="M127.3,143.3l-5.4,9.5h-8.1l9.1-14.3l-9.1-14.7h8.8l5.1,9.5h0.5l5.1-9.5h8.4l-9.1,14.3l9.2,14.7h-8.5
			l-5.4-9.5H127.3z"/>
	</g>
	<g>
		<path class="st0" d="M168.5,43.2c0,0.1,0,0.3,0,0.5C168.5,43.5,168.5,43.4,168.5,43.2z"/>
		<path class="st0" d="M141.1,21.8l19.6,19.6h5.5c0.6,0,1.2,0.3,1.6,0.7l-27.4-27.4c0.4,0.4,0.7,1,0.7,1.6L141.1,21.8L141.1,21.8z"
			/>
		<path class="st0" d="M168.1,42.4C168.2,42.4,168.2,42.4,168.1,42.4C168.2,42.4,168.2,42.4,168.1,42.4z"/>
		<path class="st0" d="M168.3,42.8L168.3,42.8C168.4,42.9,168.4,42.8,168.3,42.8z"/>
		<path class="st0" d="M140,14.3C140,14.3,140.1,14.3,140,14.3C140.1,14.3,140,14.3,140,14.3z"/>
		<path class="st0" d="M138.8,14c0.2,0,0.3,0,0.5,0C139.1,14,139,14,138.8,14z"/>
		<path class="st0" d="M139.6,14.1h0.1C139.7,14.1,139.6,14.1,139.6,14.1z"/>
		<path class="st0" d="M166.2,45.9H164v135.5H36V18.5h100.5v-2.3c0-1.3,1-2.3,2.3-2.3h-105c-1.3,0-2.3,1-2.3,2.3v167.5
			c0,1.3,1,2.3,2.3,2.3h132.5c1.3,0,2.3-1,2.3-2.3v-140C168.5,44.9,167.5,45.9,166.2,45.9z"/>
		<path class="st0" d="M136.5,16.3v2.3v25.1c0,1.3,1,2.3,2.3,2.3H164h2.3c1.3,0,2.3-1,2.3-2.3c0-0.2,0-0.3,0-0.5
			c0-0.1-0.1-0.2-0.1-0.3v-0.1c0-0.1-0.1-0.2-0.2-0.3v-0.1c-0.1-0.1-0.2-0.2-0.3-0.3c-0.4-0.4-1-0.7-1.6-0.7h-5.5h-19.6V21.8v-5.5
			c0-0.6-0.3-1.2-0.7-1.6c-0.1-0.1-0.2-0.2-0.3-0.3c0,0-0.1,0-0.1-0.1c-0.1-0.1-0.2-0.1-0.3-0.2h-0.1c-0.1,0-0.2-0.1-0.3-0.1
			s-0.3,0-0.5,0C137.6,14,136.5,15,136.5,16.3z"/>
	</g>
</g>
</svg>
