<?xml version="1.0" encoding="utf-8"?>
<!-- Generator: Adobe Illustrator 21.0.0, SVG Export Plug-In . SVG Version: 6.00 Build 0)  -->
<svg version="1.1" id="Layer_1" xmlns="http://www.w3.org/2000/svg" xmlns:xlink="http://www.w3.org/1999/xlink" x="0px" y="0px"
	 viewBox="0 0 200 200" style="enable-background:new 0 0 200 200;" xml:space="preserve">
<style type="text/css">
	.st0{fill:#E50872;}
</style>
<g>
	<path class="st0" d="M84.7,61.7H50.5c-3.2,0-5.8,2.6-5.8,5.8v78.7c0,3.2,2.6,5.8,5.8,5.8h34.2c3.2,0,5.8-2.6,5.8-5.8V67.5
		C90.4,64.3,87.8,61.7,84.7,61.7z M50.5,63.9h34.2c2,0,3.6,1.6,3.6,3.6v72H46.9v-72C46.9,65.5,48.5,63.9,50.5,63.9z M84.7,149.8
		H50.5c-2,0-3.6-1.6-3.6-3.6v-4.5h41.4v4.5C88.3,148.2,86.6,149.8,84.7,149.8z"/>
	<path class="st0" d="M61.8,69.7h11.6c0.6,0,1.1-0.5,1.1-1.1c0-0.6-0.5-1.1-1.1-1.1H61.8c-0.6,0-1.1,0.5-1.1,1.1
		C60.7,69.2,61.2,69.7,61.8,69.7z"/>
	<path class="st0" d="M53.2,104.7l13.9,5.3c0.1,0.1,0.3,0.1,0.5,0.1c0.2,0,0.3,0,0.5-0.1l13.9-5.3c0.4-0.2,0.7-0.6,0.7-1V87.2
		c0-0.1,0-0.2-0.1-0.4c0,0,0,0,0,0c0,0,0,0,0-0.1c0-0.1-0.1-0.2-0.2-0.3c0,0-0.1-0.1-0.1-0.1c-0.1-0.1-0.1-0.1-0.2-0.1
		c0,0-0.1,0-0.1-0.1c0,0,0,0,0,0l-14-4.9c-0.2-0.1-0.5-0.1-0.7,0l-14,4.9c0,0,0,0,0,0c0,0-0.1,0-0.1,0.1c-0.1,0-0.1,0.1-0.2,0.1
		c0,0-0.1,0.1-0.1,0.1c-0.1,0.1-0.1,0.2-0.2,0.3c0,0,0,0,0,0.1c0,0,0,0,0,0c0,0.1-0.1,0.2-0.1,0.4v16.5
		C52.5,104.1,52.7,104.5,53.2,104.7z M54.6,88.7l11.9,4.4v14.3l-11.9-4.5V88.7z M68.7,107.4V93.1l11.9-4.4v14.2L68.7,107.4z
		 M67.6,83.4l10.8,3.8l-10.8,4l-10.8-4L67.6,83.4z"/>
	<path class="st0" d="M183.5,95.3l-82.9-47.1c-0.3-0.2-0.7-0.2-1.1,0l-15.2,8.6c-0.5,0.3-0.7,1-0.4,1.5c0.3,0.5,1,0.7,1.5,0.4
		l14.7-8.3l80.7,45.9L100,142.1l-3.2-1.8c-0.5-0.3-1.2-0.1-1.5,0.4c-0.3,0.5-0.1,1.2,0.4,1.5l3.7,2.1c0.2,0.1,0.4,0.1,0.5,0.1
		s0.4,0,0.5-0.1l82.9-47.1c0.3-0.2,0.5-0.6,0.5-0.9C184,95.8,183.8,95.5,183.5,95.3z"/>
	<path class="st0" d="M82.1,131.9l-28-15.9c-0.5-0.3-1.2-0.1-1.5,0.4c-0.3,0.5-0.1,1.2,0.4,1.5l28,15.9c0.2,0.1,0.4,0.1,0.5,0.1
		c0.4,0,0.7-0.2,0.9-0.5C82.8,132.9,82.7,132.2,82.1,131.9z"/>
	<path class="st0" d="M39.8,83.3c-0.3-0.5-1-0.7-1.5-0.4L16.5,95.3c-0.3,0.2-0.5,0.6-0.5,0.9c0,0.4,0.2,0.7,0.5,0.9l21.8,12.4
		c0.2,0.1,0.4,0.1,0.5,0.1c0.4,0,0.7-0.2,0.9-0.5c0.3-0.5,0.1-1.2-0.4-1.5L19.3,96.2l20.2-11.5C40,84.5,40.1,83.8,39.8,83.3z"/>
</g>
</svg>
