<?xml version="1.0" encoding="utf-8"?>
<!-- Generator: Adobe Illustrator 21.0.0, SVG Export Plug-In . SVG Version: 6.00 Build 0)  -->
<svg version="1.1" id="Layer_1" xmlns="http://www.w3.org/2000/svg" xmlns:xlink="http://www.w3.org/1999/xlink" x="0px" y="0px"
	 viewBox="0 0 200 200" style="enable-background:new 0 0 200 200;" xml:space="preserve">
<style type="text/css">
	.st0{fill:#E50872;}
</style>
<g>
	<path class="st0" d="M176.3,79.8h-4.7V66.1c0-6.7-5.4-12.1-12.1-12.1h-48.6c-3.9,0-7.6,1.9-9.9,5.1l-1,1.5L99,59
		c-2.3-3.2-6-5.1-9.9-5.1H58.5c-0.7,0-1.2,0.5-1.2,1.2c0,0.7,0.5,1.2,1.2,1.2h30.5c5.4,0,9.7,4.4,9.7,9.7v27.9l-2.3-2.2
		c-2.7-2.5-6.4-4-10.1-4H43.9l-0.1-1.2c-0.2-2.8-2.1-5.3-4.8-6.2c-0.7-0.3-1.5-0.4-2.3-0.4h-6V66.1c0-5.4,4.4-9.7,9.7-9.7h8.1
		c0.7,0,1.2-0.5,1.2-1.2c0-0.7-0.5-1.2-1.2-1.2h-8.1c-6.7,0-12.1,5.4-12.1,12.1v13.8h-4.7c-3.9,0-7.1,3.2-7.1,7.1v25.9
		c0,8.9,7.3,16.2,16.2,16.2h3.1l-0.6,1.7c0,0-2.7,7.2-2.7,7.3c-0.7,1.8-0.4,3.8,0.7,5.4c1.1,1.6,2.9,2.6,4.8,2.6h4
		c1.8,0,3.6-0.9,4.7-2.3l11.1-14.7h84.4l11.1,14.7c1.1,1.5,2.9,2.3,4.7,2.3h4c1.9,0,3.7-1,4.8-2.6c1.1-1.6,1.4-3.6,0.7-5.4l-3.4-9
		h3.1c8.9,0,16.2-7.3,16.2-16.2V87C183.4,83,180.2,79.8,176.3,79.8z M101.2,66.1c0-5.4,4.4-9.7,9.7-9.7h48.6c5.4,0,9.7,4.4,9.7,9.7
		v13.8h-6c-2.8,0-5.5,1.8-6.6,4.4c-0.3,0.7-0.5,1.5-0.5,2.3l-0.1,1.2h-42.6c-3.8,0-7.5,1.5-10.2,4.1l-2.2,2.1V66.1z M43.8,90.1h42.6
		c6.8,0,12.4,5.6,12.4,12.4v4.8h-55V90.1z M44.8,142.3c-0.7,0.9-1.7,1.4-2.8,1.4h-4c-1.1,0-2.2-0.6-2.9-1.5
		c-0.7-0.9-0.8-2.1-0.4-3.2l3.7-9.9h16.4L44.8,142.3z M165.3,139c0.4,1,0.2,2.2-0.4,3.2c-0.7,0.9-1.7,1.5-2.9,1.5h-4
		c-1.1,0-2.1-0.5-2.8-1.4l-10-13.2h16.4l0.3,0.8C163.2,133.3,165.3,139,165.3,139z M181,112.9c0,7.6-6.2,13.8-13.8,13.8H32.8
		c-7.6,0-13.8-6.2-13.8-13.8V87c0-2.6,2.1-4.7,4.7-4.7h13c2.6,0,4.7,2.1,4.7,4.7v21.5c0,0.7,0.5,1.2,1.2,1.2h91.2
		c0.7,0,1.2-0.5,1.2-1.2c0-0.7-0.5-1.2-1.2-1.2h-32.6v-4.8c0-6.8,5.6-12.4,12.4-12.4h42.6v17.2h-12.5c-0.7,0-1.2,0.5-1.2,1.2
		c0,0.7,0.5,1.2,1.2,1.2h13.7c0.7,0,1.2-0.5,1.2-1.2V87c0-2.6,2.1-4.7,4.7-4.7h13c2.6,0,4.7,2.1,4.7,4.7V112.9z"/>
</g>
</svg>
