<?xml version="1.0" encoding="utf-8"?>
<!-- Generator: Adobe Illustrator 22.1.0, SVG Export Plug-In . SVG Version: 6.00 Build 0)  -->
<svg version="1.1" baseProfile="tiny" id="Layer_1" xmlns="http://www.w3.org/2000/svg" xmlns:xlink="http://www.w3.org/1999/xlink"
	 x="0px" y="0px" viewBox="0 0 400 400" xml:space="preserve">
<g>
	<g>
		<g>
			<path fill="#E50872" d="M277,296.1c-2.2,0-4.1,1.8-4.1,4.1v11H127.1v-52.1l4.7,2c0.1,0.1,0.3,0.1,0.4,0.1c0,0,0,0,0.1,0
				c0.2,0,0.3,0.1,0.5,0.1c0,0,0.1,0,0.1,0c0.2,0,0.3,0,0.5,0c0.2,0,0.3,0,0.5,0c0,0,0.1,0,0.1,0c0.2,0,0.3-0.1,0.5-0.1
				c0,0,0,0,0.1,0c0.1,0,0.3-0.1,0.4-0.1l39-16.5c1.5-0.6,2.5-2.1,2.5-3.7v-52.6c0-0.2,0-0.4,0-0.5c0,0,0-0.1,0-0.1
				c0-0.1-0.1-0.3-0.1-0.4c0-0.1,0-0.1-0.1-0.2c0-0.1-0.1-0.2-0.1-0.3c0-0.1-0.1-0.1-0.1-0.2c0-0.1-0.1-0.2-0.2-0.3
				c0-0.1-0.1-0.1-0.1-0.2c-0.1-0.1-0.1-0.2-0.2-0.3c0-0.1-0.1-0.1-0.1-0.2c-0.1-0.1-0.2-0.2-0.3-0.3c0,0-0.1-0.1-0.1-0.1
				c-0.1-0.1-0.3-0.2-0.4-0.3c0,0,0,0,0,0c0,0-0.1-0.1-0.2-0.1c-0.1-0.1-0.2-0.1-0.3-0.2c0,0,0,0-0.1,0l-39-17.6
				c-1.1-0.5-2.3-0.5-3.3,0l-4.6,2.1V99.3c0-2.2-1.8-4.1-4.1-4.1c-2.2,0-4.1,1.8-4.1,4.1v73.3l-26.3,11.9c0,0,0,0-0.1,0
				c-0.1,0-0.2,0.1-0.3,0.2c-0.1,0-0.1,0.1-0.2,0.1c0,0,0,0,0,0c-0.1,0.1-0.2,0.2-0.4,0.3c-0.1,0.1-0.1,0.1-0.2,0.2
				c-0.1,0.1-0.1,0.1-0.2,0.2c-0.1,0.1-0.1,0.1-0.2,0.2c-0.1,0.1-0.1,0.1-0.2,0.2c0,0.1-0.1,0.2-0.1,0.2c0,0.1-0.1,0.2-0.1,0.2
				c0,0.1-0.1,0.2-0.1,0.2c0,0.1-0.1,0.2-0.1,0.3c0,0.1-0.1,0.2-0.1,0.3c0,0.1,0,0.2-0.1,0.3c0,0.1,0,0.2,0,0.2c0,0.2,0,0.3,0,0.5v0
				c0,0,0,0,0,0c0,0,0,0,0,0v52.6c0,1.6,1,3.1,2.5,3.7l26.2,11.1v76.5c0,11.2,9.1,20.3,20.3,20.3h121.4c11.2,0,20.3-9.1,20.3-20.3
				v-32C281,297.9,279.2,296.1,277,296.1z M168.3,238.1l-30.9,13.1v-43.8l30.9-13.1V238.1z M133.3,175l28.9,13l-28.9,12.2L104.5,188
				L133.3,175z M98.4,238.1v-43.8l30.9,13.1v43.8L98.4,238.1z M272.9,332.2c0,6.7-5.5,12.2-12.2,12.2H139.3
				c-6.7,0-12.2-5.5-12.2-12.2v-12.8h145.8V332.2z"/>
		</g>
	</g>
	<g>
		<g>
			<path fill="#E50872" d="M210.8,329.2h-21.7c-2.2,0-4.1,1.8-4.1,4.1c0,2.2,1.8,4.1,4.1,4.1h21.7c2.2,0,4.1-1.8,4.1-4.1
				C214.9,331,213.1,329.2,210.8,329.2z"/>
		</g>
	</g>
	<g>
		<g>
			<g>
				<path fill="#E50872" d="M309.7,118.8c0,0,0-0.1,0-0.1c0-0.1-0.1-0.3-0.1-0.4c0-0.1,0-0.1-0.1-0.2c0-0.1-0.1-0.2-0.1-0.3
					c0-0.1-0.1-0.1-0.1-0.2c-0.1-0.1-0.1-0.2-0.2-0.3c0-0.1-0.1-0.1-0.1-0.2c-0.1-0.1-0.1-0.2-0.2-0.3c0,0-0.1-0.1-0.1-0.1
					c-0.1-0.1-0.2-0.2-0.3-0.3c0,0-0.1-0.1-0.1-0.1c-0.1-0.1-0.3-0.2-0.4-0.3c0,0,0,0,0,0c0,0-0.1-0.1-0.2-0.1
					c-0.1-0.1-0.2-0.1-0.3-0.2c0,0,0,0-0.1,0L281,103.8V67.8c0-11.2-9.1-20.3-20.3-20.3H139.3c-11.2,0-20.3,9.1-20.3,20.3v14.1
					c0,2.2,1.8,4.1,4.1,4.1c2.2,0,4.1-1.8,4.1-4.1V67.8c0-6.7,5.5-12.2,12.2-12.2h17.6v8.9c0,6.4,5.2,11.7,11.7,11.7h62.9
					c6.4,0,11.7-5.2,11.7-11.7v-8.9h17.6c6.7,0,12.2,5.5,12.2,12.2v32.3l-14.3-6.4c-1.1-0.5-2.3-0.5-3.3,0l-48.8,22c0,0,0,0-0.1,0
					c-0.1,0-0.2,0.1-0.3,0.1c-0.1,0-0.1,0.1-0.2,0.1c0,0,0,0,0,0c-0.1,0.1-0.2,0.1-0.3,0.2c-0.1,0.1-0.2,0.2-0.3,0.3
					c-0.1,0.1-0.1,0.1-0.2,0.2c-0.1,0.1-0.1,0.1-0.2,0.2c-0.1,0.1-0.1,0.1-0.2,0.2c-0.1,0.1-0.1,0.2-0.1,0.2c0,0.1-0.1,0.1-0.1,0.2
					c0,0.1-0.1,0.2-0.1,0.3c0,0.1-0.1,0.2-0.1,0.2c0,0.1-0.1,0.2-0.1,0.3c0,0.1,0,0.2-0.1,0.3c0,0.1,0,0.2-0.1,0.3
					c0,0.2,0,0.3,0,0.5v0c0,0,0,0,0,0c0,0,0,0,0,0v65.7c0,1.6,1,3.1,2.5,3.7l8.4,3.6c2.1,0.9,4.5-0.1,5.3-2.2
					c0.9-2.1-0.1-4.5-2.2-5.3l-5.9-2.5v-57l40.7,17.2v57l-18.7-7.9c-2.1-0.9-4.5,0.1-5.3,2.2c-0.9,2.1,0.1,4.5,2.2,5.3l24.4,10.3
					c0.1,0.1,0.3,0.1,0.4,0.1c0,0,0,0,0.1,0c0.2,0,0.3,0.1,0.5,0.1c0,0,0.1,0,0.1,0c0.2,0,0.3,0,0.5,0c0.2,0,0.3,0,0.5,0
					c0,0,0.1,0,0.1,0c0.2,0,0.3-0.1,0.5-0.1c0,0,0,0,0.1,0c0.1,0,0.3-0.1,0.4-0.1l14.4-6.1v79.4c0,2.2,1.8,4.1,4.1,4.1
					s4.1-1.8,4.1-4.1V200l26.2-11.1c1.5-0.6,2.5-2.1,2.5-3.7v-65.8C309.8,119.2,309.8,119,309.7,118.8z M235,64.6
					c0,1.9-1.6,3.5-3.5,3.5h-62.9c-1.9,0-3.5-1.6-3.5-3.5v-8.9H235V64.6z M256.9,135.6l-38.6-16.3l38.6-17.4l38.6,17.4c0,0,0,0,0,0
					L256.9,135.6z M301.6,182.5L301.6,182.5C301.6,182.5,301.6,182.5,301.6,182.5L261,199.7v-57l40.7-17.2V182.5L301.6,182.5z"/>
				<path fill="#E50872" d="M295.5,119.2L295.5,119.2C295.5,119.2,295.5,119.2,295.5,119.2z"/>
			</g>
		</g>
	</g>
</g>
</svg>
