<?xml version="1.0" encoding="utf-8"?>
<!-- Generator: Adobe Illustrator 22.1.0, SVG Export Plug-In . SVG Version: 6.00 Build 0)  -->
<svg version="1.1" id="Layer_1" xmlns="http://www.w3.org/2000/svg" xmlns:xlink="http://www.w3.org/1999/xlink" x="0px" y="0px"
	 viewBox="0 0 400 400" style="enable-background:new 0 0 400 400;" xml:space="preserve">
<style type="text/css">
	.st0{fill:#E50872;}
</style>
<g>
	<g>
		<g>
			<g>
				<path class="st0" d="M201,269.3c-0.3,0-0.6-0.1-0.9-0.2l-58.3-22c-0.9-0.4-1.6-1.3-1.6-2.3v-75.2c0-1,0.7-1.9,1.6-2.3l58.3-20.5
					c0.5-0.2,1.1-0.2,1.6,0l58.3,20.5c1,0.3,1.6,1.3,1.6,2.3v75.2c0,1-0.6,1.9-1.6,2.3l-58.3,22C201.6,269.2,201.3,269.3,201,269.3z
					 M145.2,243.2l55.8,21.1l55.8-21.1v-71.8L201,151.7l-55.8,19.6V243.2z"/>
			</g>
			<g>
				<path class="st0" d="M201,193.7c-0.3,0-0.6,0-0.8-0.2l-58.3-21.6c-1.3-0.5-1.9-1.9-1.4-3.1s1.9-1.9,3.1-1.4l57.4,21.3l57.4-21.3
					c1.3-0.5,2.7,0.2,3.1,1.4c0.5,1.3-0.2,2.7-1.4,3.1l-58.3,21.6C201.6,193.6,201.3,193.7,201,193.7z"/>
			</g>
			<g>
				<path class="st0" d="M201,269.3c-1.3,0-2.4-1.1-2.4-2.4v-75.7c0-1.3,1.1-2.4,2.4-2.4s2.4,1.1,2.4,2.4v75.7
					C203.4,268.3,202.3,269.3,201,269.3z"/>
			</g>
		</g>
		<g>
			<path class="st0" d="M288.4,310H113.6c-12,0-21.8-9.8-21.8-21.8V113.4c0-12,9.8-21.8,21.8-21.8h174.8c12,0,21.8,9.8,21.8,21.8
				v174.8C310.2,300.2,300.4,310,288.4,310z M113.6,96.4c-9.4,0-17,7.6-17,17v174.8c0,9.4,7.6,17,17,17h174.8c9.4,0,17-7.6,17-17
				V113.4c0-9.4-7.6-17-17-17H113.6z"/>
		</g>
		<g>
			<path class="st0" d="M201,152.2c-1.3,0-2.4-1.1-2.4-2.4V94c0-1.3,1.1-2.4,2.4-2.4s2.4,1.1,2.4,2.4v55.8
				C203.4,151.1,202.3,152.2,201,152.2z"/>
		</g>
		<g>
			<g>
				<path class="st0" d="M94.2,264.3c-1,0-1.9-0.6-2.3-1.6c-0.4-1.3,0.2-2.6,1.5-3.1l48.5-17c1.3-0.5,2.6,0.2,3.1,1.5
					c0.4,1.3-0.2,2.6-1.5,3.1l-48.5,17C94.7,264.3,94.5,264.3,94.2,264.3z"/>
			</g>
			<g>
				<path class="st0" d="M307.8,264.3c-0.3,0-0.5,0-0.8-0.1l-48.6-17c-1.3-0.4-1.9-1.8-1.5-3.1c0.4-1.3,1.8-1.9,3.1-1.5l48.6,17
					c1.3,0.4,1.9,1.8,1.5,3.1C309.7,263.7,308.8,264.3,307.8,264.3z"/>
			</g>
		</g>
	</g>
</g>
</svg>
