<?xml version="1.0" encoding="utf-8"?>
<!-- Generator: Adobe Illustrator 21.0.0, SVG Export Plug-In . SVG Version: 6.00 Build 0)  -->
<svg version="1.1" id="Layer_1" xmlns="http://www.w3.org/2000/svg" xmlns:xlink="http://www.w3.org/1999/xlink" x="0px" y="0px"
	 viewBox="0 0 400 400" style="enable-background:new 0 0 400 400;" xml:space="preserve">
<style type="text/css">
	.st0{fill:#E50872;}
</style>
<g>
	<g>
		<path class="st0" d="M341.7,105.6h-17.2V92.7c0-2.4-1.9-4.3-4.3-4.3H303V71.2c0-2.4-1.9-4.3-4.3-4.3H101.3c-2.4,0-4.3,1.9-4.3,4.3
			v17.2H79.8c-2.4,0-4.3,1.9-4.3,4.3v12.9H58.3c-2.4,0-4.3,1.9-4.3,4.3v180.3c0,2.4,1.9,4.3,4.3,4.3h17.2v12.9
			c0,2.4,1.9,4.3,4.3,4.3H97v17.2c0,2.4,1.9,4.3,4.3,4.3h197.5c2.4,0,4.3-1.9,4.3-4.3v-17.2h17.2c2.4,0,4.3-1.9,4.3-4.3v-12.9h17.2
			c2.4,0,4.3-1.9,4.3-4.3V109.8C346,107.5,344,105.6,341.7,105.6z M105.6,324.5v-249h188.9v249H105.6z M84.1,97H97v206H84.1V97z
			 M303,97h12.9v206H303V97z M62.6,285.9V114.1h12.9v171.7H62.6V285.9z M337.4,285.9h-12.9V114.1h12.9V285.9z"/>
	</g>
	<g>
		<path class="st0" d="M173.4,282.2l11.6-74l0,0h22.4l0,0l11.6,74c0.3,2.1,2.2,3.6,4.2,3.6c0.2,0,0.4,0,0.7-0.1
			c2.3-0.4,3.9-2.6,3.6-4.9L216,208.3h11c2.1,0,3.8-1.5,4.2-3.5l15.7-85.5c0.4-2.3-1.1-4.6-3.5-5c-2.3-0.5-4.6,1.1-5,3.5l-15,82
			h-66.1c-2.4,0-4.3,1.9-4.3,4.3c0,2.4,1.9,4.3,4.3,4.3h18.9L164.8,281c-0.4,2.3,1.2,4.5,3.6,4.9c0.2,0,0.4,0.1,0.7,0.1
			C171.2,285.9,173,284.3,173.4,282.2z"/>
	</g>
</g>
</svg>
