<?xml version="1.0" encoding="utf-8"?>
<!-- Generator: Adobe Illustrator 21.0.0, SVG Export Plug-In . SVG Version: 6.00 Build 0)  -->
<svg version="1.1" id="Layer_1" xmlns="http://www.w3.org/2000/svg" xmlns:xlink="http://www.w3.org/1999/xlink" x="0px" y="0px"
	 viewBox="0 0 200 200" style="enable-background:new 0 0 200 200;" xml:space="preserve">
<style type="text/css">
	.st0{fill:#E50872;}
</style>
<g>
	<path class="st0" d="M153.4,79.1c-0.6,0-1.1,0.5-1.1,1.1v66.9H67.7V52.2H124c0.6,0,1.1-0.5,1.1-1.1s-0.5-1.1-1.1-1.1H67.6
		c-0.5-5.6-5.3-10-11-10c-6.1,0-11.1,5-11.1,11.1v97.1v0.7v0.3c0,0,0,0.1,0,0.1c0.2,5.9,5.1,10.6,11.1,10.6h86.1
		c0.6,0,1.1-0.5,1.1-1.1s-0.5-1.1-1.1-1.1H56.6c-4.9,0-8.9-4-8.9-8.9v-0.7c0-4.9,4-8.9,8.9-8.9c4.9,0,8.9,4,8.9,8.9
		c0,0.6,0.5,1.1,1.1,1.1h86.8c0.6,0,1.1-0.5,1.1-1.1v-68C154.5,79.6,154,79.1,153.4,79.1z M56.6,137.1c-3.7,0-6.9,1.8-8.9,4.6V51.1
		c0-4.9,4-8.9,8.9-8.9c4.9,0,8.9,4,8.9,8.9v90.5C63.5,138.9,60.3,137.1,56.6,137.1z"/>
	<path class="st0" d="M78.6,63.1c-0.6,0-1.1,0.5-1.1,1.1V97c0,0.6,0.5,1.1,1.1,1.1H140c0.6,0,1.1-0.5,1.1-1.1V73.2h12.3
		c0.4,0,0.8-0.3,1-0.7c0.2-0.4,0.1-0.9-0.2-1.2l-21.4-21.4c-0.3-0.3-0.8-0.4-1.2-0.2c-0.4,0.2-0.7,0.6-0.7,1v12.3H78.6z M139,96
		H79.7V65.2H131v6.9c0,0.6,0.5,1.1,1.1,1.1h6.9V96z M150.8,71.1h-17.7V53.4L150.8,71.1z"/>
	<path class="st0" d="M140,109.4H78.6c-0.6,0-1.1,0.5-1.1,1.1c0,0.6,0.5,1.1,1.1,1.1H140c0.6,0,1.1-0.5,1.1-1.1
		C141.1,109.9,140.6,109.4,140,109.4z"/>
	<path class="st0" d="M140,121.4H78.6c-0.6,0-1.1,0.5-1.1,1.1c0,0.6,0.5,1.1,1.1,1.1H140c0.6,0,1.1-0.5,1.1-1.1
		C141.1,121.9,140.6,121.4,140,121.4z"/>
	<path class="st0" d="M140,133.4H78.6c-0.6,0-1.1,0.5-1.1,1.1s0.5,1.1,1.1,1.1H140c0.6,0,1.1-0.5,1.1-1.1S140.6,133.4,140,133.4z"/>
</g>
</svg>
