<?xml version="1.0" encoding="utf-8"?>
<!-- Generator: Adobe Illustrator 21.0.0, SVG Export Plug-In . SVG Version: 6.00 Build 0)  -->
<svg version="1.1" id="Layer_1" xmlns="http://www.w3.org/2000/svg" xmlns:xlink="http://www.w3.org/1999/xlink" x="0px" y="0px"
	 viewBox="0 0 200 200" style="enable-background:new 0 0 200 200;" xml:space="preserve">
<style type="text/css">
	.st0{fill:#E50872;}
</style>
<g>
	<path class="st0" d="M150.1,120.8l-0.3-0.8l0.5-0.7c2.1-2.7,3.1-5.5,3-8.3c-0.1-3.2-1.6-5.7-2.8-7.2L150,103l0.3-0.8
		c0.9-2.3,2.5-8.1-2.6-12.8c-3.4-3.1-9.4-4.5-17.8-4.1c-5.8,0.3-10.8,1.3-11.3,1.5l-0.2,0c-1,0.2-2.2,0.4-3.5,0.7l-1.8,0.4l-0.1-1.8
		c-0.1-2,0.3-6,3-14.3c3.1-9.6,3-16.8-0.4-21.5c-3.5-4.8-9.1-5.2-10.8-5.2c-1.3,0-2.5,0.5-3.4,1.5c-2.3,2.7-1.8,8.4-1.6,10l0,0.4
		l-0.1,0.4C99.3,58.6,89.1,85.6,80,92.7c-0.1,0.1-0.2,0.1-0.2,0.2c-1.7,1.8-3.2,4-4.3,6.5l-0.7,1.5l-1.4-0.8c-1.2-0.7-2.5-1-3.9-1
		H55c-4.6,0-8.3,3.7-8.3,8.3v38.3c0,4.6,3.7,8.3,8.3,8.3h14.4c1.7,0,3.4-0.5,4.8-1.5l0.5-0.3l0.1,0l6,0.7c0.1,0,15.3,2,31.2,1.7
		c3.1,0.2,5.6,0.3,7.9,0.3c4.1,0,7.7-0.3,10.6-1c6.8-1.4,11.3-4.2,13.6-8.3c1.7-3,1.7-6.1,1.4-8.1l-0.1-0.8l0.6-0.5
		c4.3-3.9,5-8.1,4.8-11C150.8,123.2,150.4,121.7,150.1,120.8z M74.4,145.6c0,2.7-2.2,5-5,5l-14.4,0c-2.7,0-5-2.2-5-5v-38.3
		c0-2.7,2.2-5,5-5h14.4c2.7,0,5,2.2,5,5V145.6z M142.6,134.7c-0.6,0.4-0.8,1.2-0.6,1.9l0.1,0.3c0.3,1.2,0.8,4.1-0.8,7.1
		c-1.8,3.2-5.7,5.5-11.4,6.7c-2.7,0.6-6,0.9-9.9,0.9c-2.4,0-5-0.1-7.7-0.3l-0.2,0c-14.9,0.3-30.1-1.6-30.8-1.7l-4.1-0.5l0.4-1.6
		c0.1-0.5,0.2-1.1,0.2-1.8v-38.3c0-0.8-0.1-1.7-0.4-2.5l-0.1-0.4l0.1-0.4c0.5-1.9,1.8-5.6,4.7-8.7l0.2-0.1
		C92.4,87,102.6,59,103.1,57.8c0.1-0.3,0.1-0.5,0.1-0.8c-0.3-2.2-0.5-6.2,0.5-7.9l0.5-0.8l0.9,0c1.6,0,5.4,0.5,7.9,3.8
		c2.7,3.7,2.7,10.2-0.1,18.5c-3.7,11.2-4.2,17.2-1.6,19.5c1.1,1,2.6,1,3.6,0.6c1.7-0.4,3.1-0.7,4.4-0.9l0.2-0.1
		c7.8-1.7,21.1-2.6,26.1,1.9c4.7,4.3,1.5,9.9,1.1,10.6c-0.5,0.7-0.3,1.6,0.3,2.2c0.3,0.3,3,3,3.1,6.6c0.1,2.5-1,5.1-3.4,7.5
		c-0.5,0.5-0.6,1.4-0.2,2l0.2,0.4c0.7,1.4,1,2.8,1.1,4.3C147.9,128.8,146.2,132,142.6,134.7z"/>
</g>
</svg>
