<?xml version="1.0" encoding="utf-8"?>
<!-- Generator: Adobe Illustrator 21.0.0, SVG Export Plug-In . SVG Version: 6.00 Build 0)  -->
<svg version="1.1" id="Layer_1" xmlns="http://www.w3.org/2000/svg" xmlns:xlink="http://www.w3.org/1999/xlink" x="0px" y="0px"
	 viewBox="0 0 200 200" style="enable-background:new 0 0 200 200;" xml:space="preserve">
<style type="text/css">
	.st0{fill:#E50872;}
</style>
<g>
	<path class="st0" d="M100.6,131l42.4-15.1c0.5-0.2,0.8-0.6,0.8-1.1V62.9c0-0.1,0-0.3-0.1-0.4c0,0,0,0,0,0c0,0,0,0,0,0
		c0-0.1-0.1-0.2-0.2-0.3c0,0-0.1-0.1-0.1-0.1c-0.1-0.1-0.1-0.1-0.2-0.2c0,0-0.1-0.1-0.1-0.1c0,0,0,0-0.1,0l-42.6-14.1
		c-0.2-0.1-0.5-0.1-0.7,0L57.1,61.8c0,0,0,0-0.1,0c-0.1,0-0.1,0-0.1,0.1c-0.1,0-0.1,0.1-0.2,0.2c0,0-0.1,0.1-0.1,0.1
		c-0.1,0.1-0.1,0.2-0.2,0.3c0,0,0,0,0,0.1c0,0,0,0,0,0c0,0.1-0.1,0.2-0.1,0.4v51.9c0,0.5,0.3,1,0.8,1.1L99.4,131
		c0.2,0.1,0.4,0.2,0.6,0.2C100.2,131.2,100.4,131.1,100.6,131z M101.2,128.3V78.6l40.2-14.1v49.4L101.2,128.3z M100,50l38.9,12.9
		L100,76.5L61.1,62.9L100,50z M58.6,64.6l40.2,14.1v49.6l-40.2-14.3V64.6z"/>
	<path class="st0" d="M158.1,75.1c-0.6-0.2-1.3,0-1.5,0.7c-0.2,0.6,0.1,1.3,0.7,1.5c18.5,7.4,29.1,18.1,29.1,29.1
		c0,18.1-28.4,34.1-67.4,38c-0.7,0.1-1.1,0.7-1.1,1.3c0.1,0.6,0.6,1.1,1.2,1.1c0,0,0.1,0,0.1,0c41-4.2,69.6-20.8,69.6-40.4
		C188.8,94.3,177.6,82.9,158.1,75.1z"/>
	<path class="st0" d="M82.1,145.4C82.1,145.3,82.1,145.3,82.1,145.4c0-0.2-0.1-0.2-0.1-0.3c0-0.1-0.1-0.2-0.1-0.2c0,0,0,0,0,0
		l-5.1-6.1c-0.4-0.5-1.2-0.6-1.7-0.2c-0.5,0.4-0.6,1.2-0.2,1.7l3.2,3.8c-37.6-4.5-64.5-20.1-64.5-37.7c0-11.1,10.6-21.7,29.1-29.1
		c0.6-0.2,0.9-0.9,0.7-1.5c-0.2-0.6-0.9-0.9-1.5-0.7c-19.5,7.8-30.6,19.2-30.6,31.3c0,19.2,27.4,35.5,67,40.1l-4.2,3.8
		c-0.5,0.4-0.5,1.2-0.1,1.7c0.2,0.3,0.6,0.4,0.9,0.4c0.3,0,0.6-0.1,0.8-0.3l6.1-5.6c0,0,0,0,0-0.1c0.1-0.1,0.2-0.2,0.2-0.3
		c0-0.1,0-0.1,0.1-0.2c0-0.1,0-0.1,0.1-0.2c0,0,0,0,0,0C82.1,145.6,82.1,145.5,82.1,145.4z"/>
</g>
</svg>
