<?xml version="1.0" encoding="utf-8"?>
<!-- Generator: Adobe Illustrator 21.0.0, SVG Export Plug-In . SVG Version: 6.00 Build 0)  -->
<svg version="1.1" id="Layer_1" xmlns="http://www.w3.org/2000/svg" xmlns:xlink="http://www.w3.org/1999/xlink" x="0px" y="0px"
	 viewBox="0 0 200 200" style="enable-background:new 0 0 200 200;" xml:space="preserve">
<style type="text/css">
	.st0{fill:#E50872;}
</style>
<g>
	<path class="st0" d="M173,131.4c0.7,0,1.2-0.6,1.2-1.2c0-0.7-0.6-1.2-1.2-1.2h-64.6c-0.6-2.8-3.1-5-6.1-5s-5.5,2.1-6.1,5H26.7
		c-0.7,0-1.2,0.6-1.2,1.2c0,0.7,0.6,1.2,1.2,1.2h69.5c0.6,2.8,3.1,5,6.1,5s5.5-2.1,6.1-5H173z"/>
	<path class="st0" d="M147.5,75.8c6.1,3.3,9.5,7.4,9.5,11.6c0,8-12.5,15.4-30.4,17.9c-0.7,0.1-1.2,0.7-1.1,1.4
		c0.1,0.6,0.6,1.1,1.2,1.1c0.1,0,0.1,0,0.2,0c19.5-2.7,32.6-10.9,32.6-20.4c0-5.2-3.7-9.9-10.8-13.7c-0.6-0.3-1.4-0.1-1.7,0.5
		C146.7,74.8,146.9,75.5,147.5,75.8z"/>
	<path class="st0" d="M67.5,107.7l-3.8,2.7c-0.6,0.4-0.7,1.2-0.3,1.7c0.2,0.3,0.6,0.5,1,0.5c0.3,0,0.5-0.1,0.7-0.2l6.3-4.5
		c0.3-0.2,0.4-0.5,0.5-0.8c0.1-0.3,0-0.7-0.2-0.9l-4.5-6.3c-0.4-0.6-1.2-0.7-1.7-0.3c-0.6,0.4-0.7,1.2-0.3,1.7l2.8,4
		c-17.7-2.6-30-9.9-30-17.8c0-4.1,3.4-8.2,9.5-11.6c0.6-0.3,0.8-1.1,0.5-1.7c-0.3-0.6-1.1-0.8-1.7-0.5c-7,3.8-10.8,8.6-10.8,13.7
		C35.6,96.7,48.4,104.8,67.5,107.7z"/>
	<path class="st0" d="M64.7,48.5v37.8c0,0.5,0.3,1,0.8,1.2l32.3,12.8c0.1,0.1,0.3,0.1,0.5,0.1c0.1,0,0.3,0,0.4-0.1L134.1,89
		c0.5-0.2,0.9-0.6,0.9-1.2V68.3c0-0.1,0-0.2-0.1-0.4c0,0,0,0,0,0c0,0,0,0,0,0c0-0.1-0.1-0.3-0.2-0.4c0,0-0.1-0.1-0.1-0.1
		c-0.1-0.1-0.2-0.1-0.3-0.2c0,0-0.1,0-0.1-0.1c0,0-0.1,0-0.1,0l-16.3-6.3V43.4c0-0.1,0-0.3-0.1-0.4c0,0,0,0,0,0c0,0,0,0,0,0
		c0-0.1-0.1-0.3-0.2-0.4c0,0-0.1-0.1-0.1-0.1c-0.1-0.1-0.2-0.1-0.2-0.2c0,0-0.1,0-0.1-0.1c0,0,0,0-0.1,0l-15.2-6.2
		c-0.1,0-0.1,0-0.2,0c-0.1,0-0.2,0-0.3,0c-0.1,0-0.2,0-0.3,0c-0.1,0-0.1,0-0.2,0L65.6,47.3c0,0,0,0-0.1,0c-0.1,0-0.2,0.1-0.2,0.1
		c-0.1,0-0.1,0.1-0.2,0.1c0,0,0,0,0,0c0,0,0,0.1-0.1,0.1c0,0,0,0.1-0.1,0.1c0,0.1-0.1,0.1-0.1,0.2c0,0,0,0,0,0c0,0,0,0,0,0
		c0,0.1,0,0.1,0,0.2C64.8,48.2,64.7,48.3,64.7,48.5C64.7,48.4,64.7,48.4,64.7,48.5L64.7,48.5C64.7,48.5,64.7,48.5,64.7,48.5z
		 M101.3,38.6l11.6,4.7l-31.7,10l-11.5-4.6L101.3,38.6z M98.3,78.1l-13.8-5.3l31.5-10c0,0,0,0,0.1,0l13.8,5.4L98.3,78.1z
		 M115.3,60.4L82.4,70.9V55.5l32.9-10.3V60.4z M67.2,50.3l12.7,5.1v17.2c0,0.1,0,0.1,0,0.2c0,0.5,0.2,1.1,0.8,1.3L97,80.3v16.9
		L67.2,85.4V50.3z M99.5,97.4v-17L132.4,70v16.8L99.5,97.4z"/>
	<path class="st0" d="M32.2,145.7c-4.1,0-6.7,3.4-6.7,9.1c0,5.8,2.5,9.2,6.7,9.2c4.2,0,6.6-3.4,6.6-9.1
		C38.9,149.1,36.3,145.7,32.2,145.7z M32.2,161.4c-2.2,0-3.5-2.3-3.5-6.6c0-4.3,1.3-6.5,3.5-6.5c2.2,0,3.5,2.3,3.5,6.5
		C35.7,159.1,34.4,161.4,32.2,161.4z"/>
	<polygon class="st0" points="134.4,149.3 134.4,152.3 138.7,149.3 139,149.3 139,163.6 142.1,163.6 142.1,146.1 139,146.1 	"/>
	<path class="st0" d="M152.4,145.7c-4.1,0-6.7,3.4-6.7,9.1c0,5.8,2.5,9.2,6.7,9.2c4.2,0,6.6-3.4,6.6-9.1
		C159.1,149.1,156.6,145.7,152.4,145.7z M152.4,161.4c-2.2,0-3.5-2.3-3.5-6.6c0-4.3,1.3-6.5,3.5-6.5c2.2,0,3.5,2.3,3.5,6.5
		C155.9,159.1,154.7,161.4,152.4,161.4z"/>
	<path class="st0" d="M167.9,145.7c-4.1,0-6.7,3.4-6.7,9.1c0,5.8,2.5,9.2,6.7,9.2c4.2,0,6.6-3.4,6.6-9.1
		C174.6,149.1,172,145.7,167.9,145.7z M167.9,161.4c-2.2,0-3.5-2.3-3.5-6.6c0-4.3,1.3-6.5,3.5-6.5c2.2,0,3.5,2.3,3.5,6.5
		C171.4,159.1,170.1,161.4,167.9,161.4z"/>
</g>
</svg>
