<?xml version="1.0" encoding="utf-8"?>
<!-- Generator: Adobe Illustrator 21.0.0, SVG Export Plug-In . SVG Version: 6.00 Build 0)  -->
<svg version="1.1" id="Layer_1" xmlns="http://www.w3.org/2000/svg" xmlns:xlink="http://www.w3.org/1999/xlink" x="0px" y="0px"
	 viewBox="0 0 200 200" style="enable-background:new 0 0 200 200;" xml:space="preserve">
<style type="text/css">
	.st0{fill:#E50872;}
</style>
<g>
	<path class="st0" d="M165.3,63.2c0,0,0-0.1,0-0.1c0-0.2-0.1-0.3-0.3-0.5l-17.8-17.8c-0.1-0.1-0.3-0.2-0.5-0.3c0,0-0.1,0-0.1,0
		c0,0-0.1,0-0.1,0H90.8c-0.6,0-1.1,0.5-1.1,1.1v5.2H63.3c-0.6,0-1.1,0.5-1.1,1.1v5.2H35.7c-0.6,0-1.1,0.5-1.1,1.1v96.3
		c0,0.6,0.5,1.1,1.1,1.1h73.4c0.6,0,1.1-0.5,1.1-1.1v-5.2h26.5c0.6,0,1.1-0.5,1.1-1.1v-5.2h26.5c0.6,0,1.1-0.5,1.1-1.1V63.4
		C165.3,63.3,165.3,63.3,165.3,63.2z M161.7,62.3h-14.2V48.2L161.7,62.3z M120,54.4l14.2,14.2H120V54.4z M36.8,153.3V59.2h53.5v16.7
		c0,0.6,0.5,1.1,1.1,1.1h16.7v76.4H36.8z M92.4,60.7l14.2,14.2H92.4V60.7z M110.2,75.9c0,0,0-0.1,0-0.1c0,0,0-0.1,0-0.1
		c0-0.2-0.1-0.3-0.3-0.5c0,0,0,0,0,0L92.1,57.4c-0.1-0.1-0.3-0.2-0.5-0.3c0,0-0.1,0-0.1,0c0,0-0.1,0-0.1,0h-27v-4.1h53.5v16.7
		c0,0.6,0.5,1.1,1.1,1.1h16.7v76.4h-25.4V75.9z M163.2,140.8h-25.4V69.6c0,0,0-0.1,0-0.1c0,0,0-0.1,0-0.1c0-0.2-0.1-0.3-0.3-0.5
		l-17.8-17.8c-0.1-0.1-0.3-0.2-0.5-0.3c0,0-0.1,0-0.1,0c0,0-0.1,0-0.1,0h-27v-4.1h53.5v16.7c0,0.6,0.5,1.1,1.1,1.1h16.7V140.8z"/>
	<path class="st0" d="M64.3,126.5c0-5.3-2.9-8.5-7.7-8.5c-4.8,0-7.7,3.2-7.7,8.5c0,5.3,2.9,8.5,7.7,8.5
		C61.4,135,64.3,131.8,64.3,126.5z M56.7,132.1c-2.8,0-4.4-2.1-4.4-5.6c0-3.5,1.6-5.6,4.4-5.6c2.8,0,4.4,2.1,4.4,5.6
		C61,130.1,59.4,132.1,56.7,132.1z"/>
	<path class="st0" d="M71.4,132.1h0.2c1,1.8,2.9,2.8,5.1,2.8c4.1,0,6.7-3.3,6.7-8.4c0-5.2-2.6-8.4-6.7-8.4c-2.2,0-4.1,1.1-5,2.9
		h-0.3v-9h-3.2v22.7h3.1V132.1z M75.9,121c2.7,0,4.4,2.1,4.4,5.5c0,3.5-1.6,5.5-4.4,5.5c-2.7,0-4.4-2.1-4.4-5.5
		C71.5,123.1,73.2,121,75.9,121z"/>
	<path class="st0" d="M89.1,115.5c1.2,0,2.1-0.9,2.1-2c0-1.1-0.9-2-2.1-2c-1.2,0-2.1,0.9-2.1,2C87,114.7,87.9,115.5,89.1,115.5z"/>
	<path class="st0" d="M90.7,135.3v-17h-3.2v16.9c0,1.6-0.6,2.2-2.3,2.2c0,0-0.4,0-0.4,0v2.7c0.1,0,0.6,0,0.7,0
		C89,140.2,90.7,138.7,90.7,135.3z"/>
</g>
</svg>
